<?xml version="1.0" encoding="UTF-8" standalone="no"?>
<!DOCTYPE svg PUBLIC "-//W3C//DTD SVG 1.1//EN"
 "http://www.w3.org/Graphics/SVG/1.1/DTD/svg11.dtd">
<!-- Generated by graphviz version 2.43.0 (0)
 -->
<!-- Title: Tree Pages: 1 -->
<svg width="2626pt" height="552pt"
 viewBox="0.00 0.00 2626.00 552.00" xmlns="http://www.w3.org/2000/svg" xmlns:xlink="http://www.w3.org/1999/xlink">
<g id="graph0" class="graph" transform="scale(1 1) rotate(0) translate(4 548)">
<title>Tree</title>
<polygon fill="white" stroke="transparent" points="-4,4 -4,-548 2622,-548 2622,4 -4,4"/>
<!-- 0 -->
<g id="node1" class="node">
<title>0</title>
<path fill="#61b1ea" stroke="black" d="M1548,-544C1548,-544 1057,-544 1057,-544 1051,-544 1045,-538 1045,-532 1045,-532 1045,-473 1045,-473 1045,-467 1051,-461 1057,-461 1057,-461 1548,-461 1548,-461 1554,-461 1560,-467 1560,-473 1560,-473 1560,-532 1560,-532 1560,-538 1554,-544 1548,-544"/>
<text text-anchor="start" x="1053" y="-528.8" font-family="Helvetica,sans-Serif" font-size="14.00">Percent of adults with a bachelor&#39;s degree or higher, 2018&#45;22 ≤ 33.492</text>
<text text-anchor="start" x="1258.5" y="-513.8" font-family="Helvetica,sans-Serif" font-size="14.00">gini = 0.281</text>
<text text-anchor="start" x="1245" y="-498.8" font-family="Helvetica,sans-Serif" font-size="14.00">samples = 2480</text>
<text text-anchor="start" x="1218" y="-483.8" font-family="Helvetica,sans-Serif" font-size="14.00">value = [420.0, 2060.0]</text>
<text text-anchor="start" x="1262.5" y="-468.8" font-family="Helvetica,sans-Serif" font-size="14.00">class = win</text>
</g>
<!-- 1 -->
<g id="node2" class="node">
<title>1</title>
<path fill="#4ea7e8" stroke="black" d="M1184,-425C1184,-425 881,-425 881,-425 875,-425 869,-419 869,-413 869,-413 869,-354 869,-354 869,-348 875,-342 881,-342 881,-342 1184,-342 1184,-342 1190,-342 1196,-348 1196,-354 1196,-354 1196,-413 1196,-413 1196,-419 1190,-425 1184,-425"/>
<text text-anchor="start" x="877" y="-409.8" font-family="Helvetica,sans-Serif" font-size="14.00">Median_Household_Income_2021 ≤ 42102.0</text>
<text text-anchor="start" x="988.5" y="-394.8" font-family="Helvetica,sans-Serif" font-size="14.00">gini = 0.172</text>
<text text-anchor="start" x="975" y="-379.8" font-family="Helvetica,sans-Serif" font-size="14.00">samples = 2121</text>
<text text-anchor="start" x="961.5" y="-364.8" font-family="Helvetica,sans-Serif" font-size="14.00">value = [201, 1920]</text>
<text text-anchor="start" x="992.5" y="-349.8" font-family="Helvetica,sans-Serif" font-size="14.00">class = win</text>
</g>
<!-- 0&#45;&gt;1 -->
<g id="edge1" class="edge">
<title>0&#45;&gt;1</title>
<path fill="none" stroke="black" d="M1208.82,-460.91C1185.06,-450.61 1159.39,-439.49 1135.2,-429"/>
<polygon fill="black" stroke="black" points="1136.58,-425.79 1126.01,-425.02 1133.79,-432.21 1136.58,-425.79"/>
<text text-anchor="middle" x="1135.2" y="-444.57" font-family="Helvetica,sans-Serif" font-size="14.00">True</text>
</g>
<!-- 16 -->
<g id="node17" class="node">
<title>16</title>
<path fill="#f6d2b8" stroke="black" d="M1819,-425C1819,-425 1328,-425 1328,-425 1322,-425 1316,-419 1316,-413 1316,-413 1316,-354 1316,-354 1316,-348 1322,-342 1328,-342 1328,-342 1819,-342 1819,-342 1825,-342 1831,-348 1831,-354 1831,-354 1831,-413 1831,-413 1831,-419 1825,-425 1819,-425"/>
<text text-anchor="start" x="1324" y="-409.8" font-family="Helvetica,sans-Serif" font-size="14.00">Percent of adults with a bachelor&#39;s degree or higher, 2018&#45;22 ≤ 40.197</text>
<text text-anchor="start" x="1529.5" y="-394.8" font-family="Helvetica,sans-Serif" font-size="14.00">gini = 0.476</text>
<text text-anchor="start" x="1520.5" y="-379.8" font-family="Helvetica,sans-Serif" font-size="14.00">samples = 359</text>
<text text-anchor="start" x="1507" y="-364.8" font-family="Helvetica,sans-Serif" font-size="14.00">value = [219, 140]</text>
<text text-anchor="start" x="1531.5" y="-349.8" font-family="Helvetica,sans-Serif" font-size="14.00">class = lose</text>
</g>
<!-- 0&#45;&gt;16 -->
<g id="edge16" class="edge">
<title>0&#45;&gt;16</title>
<path fill="none" stroke="black" d="M1396.52,-460.91C1420.38,-450.61 1446.14,-439.49 1470.42,-429"/>
<polygon fill="black" stroke="black" points="1471.85,-432.2 1479.64,-425.02 1469.08,-425.77 1471.85,-432.2"/>
<text text-anchor="middle" x="1470.42" y="-444.56" font-family="Helvetica,sans-Serif" font-size="14.00">False</text>
</g>
<!-- 2 -->
<g id="node3" class="node">
<title>2</title>
<path fill="#9ccef2" stroke="black" d="M745,-306C745,-306 254,-306 254,-306 248,-306 242,-300 242,-294 242,-294 242,-235 242,-235 242,-229 248,-223 254,-223 254,-223 745,-223 745,-223 751,-223 757,-229 757,-235 757,-235 757,-294 757,-294 757,-300 751,-306 745,-306"/>
<text text-anchor="start" x="250" y="-290.8" font-family="Helvetica,sans-Serif" font-size="14.00">Percent of adults with a bachelor&#39;s degree or higher, 2018&#45;22 ≤ 19.149</text>
<text text-anchor="start" x="455.5" y="-275.8" font-family="Helvetica,sans-Serif" font-size="14.00">gini = 0.444</text>
<text text-anchor="start" x="446.5" y="-260.8" font-family="Helvetica,sans-Serif" font-size="14.00">samples = 222</text>
<text text-anchor="start" x="437.5" y="-245.8" font-family="Helvetica,sans-Serif" font-size="14.00">value = [74, 148]</text>
<text text-anchor="start" x="459.5" y="-230.8" font-family="Helvetica,sans-Serif" font-size="14.00">class = win</text>
</g>
<!-- 1&#45;&gt;2 -->
<g id="edge2" class="edge">
<title>1&#45;&gt;2</title>
<path fill="none" stroke="black" d="M868.96,-346.6C813.71,-334.47 751.48,-320.81 694.07,-308.21"/>
<polygon fill="black" stroke="black" points="694.67,-304.76 684.15,-306.03 693.17,-311.6 694.67,-304.76"/>
</g>
<!-- 9 -->
<g id="node10" class="node">
<title>9</title>
<path fill="#47a4e7" stroke="black" d="M1278,-306C1278,-306 787,-306 787,-306 781,-306 775,-300 775,-294 775,-294 775,-235 775,-235 775,-229 781,-223 787,-223 787,-223 1278,-223 1278,-223 1284,-223 1290,-229 1290,-235 1290,-235 1290,-294 1290,-294 1290,-300 1284,-306 1278,-306"/>
<text text-anchor="start" x="783" y="-290.8" font-family="Helvetica,sans-Serif" font-size="14.00">Percent of adults with a bachelor&#39;s degree or higher, 2018&#45;22 ≤ 23.367</text>
<text text-anchor="start" x="988.5" y="-275.8" font-family="Helvetica,sans-Serif" font-size="14.00">gini = 0.125</text>
<text text-anchor="start" x="975" y="-260.8" font-family="Helvetica,sans-Serif" font-size="14.00">samples = 1899</text>
<text text-anchor="start" x="961.5" y="-245.8" font-family="Helvetica,sans-Serif" font-size="14.00">value = [127, 1772]</text>
<text text-anchor="start" x="992.5" y="-230.8" font-family="Helvetica,sans-Serif" font-size="14.00">class = win</text>
</g>
<!-- 1&#45;&gt;9 -->
<g id="edge9" class="edge">
<title>1&#45;&gt;9</title>
<path fill="none" stroke="black" d="M1032.5,-341.91C1032.5,-333.65 1032.5,-324.86 1032.5,-316.3"/>
<polygon fill="black" stroke="black" points="1036,-316.02 1032.5,-306.02 1029,-316.02 1036,-316.02"/>
</g>
<!-- 3 -->
<g id="node4" class="node">
<title>3</title>
<path fill="#85c3ef" stroke="black" d="M315,-187C315,-187 12,-187 12,-187 6,-187 0,-181 0,-175 0,-175 0,-116 0,-116 0,-110 6,-104 12,-104 12,-104 315,-104 315,-104 321,-104 327,-110 327,-116 327,-116 327,-175 327,-175 327,-181 321,-187 315,-187"/>
<text text-anchor="start" x="8" y="-171.8" font-family="Helvetica,sans-Serif" font-size="14.00">Median_Household_Income_2021 ≤ 32794.0</text>
<text text-anchor="start" x="119.5" y="-156.8" font-family="Helvetica,sans-Serif" font-size="14.00">gini = 0.401</text>
<text text-anchor="start" x="110.5" y="-141.8" font-family="Helvetica,sans-Serif" font-size="14.00">samples = 198</text>
<text text-anchor="start" x="101.5" y="-126.8" font-family="Helvetica,sans-Serif" font-size="14.00">value = [55, 143]</text>
<text text-anchor="start" x="123.5" y="-111.8" font-family="Helvetica,sans-Serif" font-size="14.00">class = win</text>
</g>
<!-- 2&#45;&gt;3 -->
<g id="edge3" class="edge">
<title>2&#45;&gt;3</title>
<path fill="none" stroke="black" d="M382.93,-222.91C352.69,-212.38 320,-201 289.32,-190.31"/>
<polygon fill="black" stroke="black" points="290.46,-187 279.87,-187.02 288.16,-193.61 290.46,-187"/>
</g>
<!-- 6 -->
<g id="node7" class="node">
<title>6</title>
<path fill="#eca26d" stroke="black" d="M660,-187C660,-187 357,-187 357,-187 351,-187 345,-181 345,-175 345,-175 345,-116 345,-116 345,-110 351,-104 357,-104 357,-104 660,-104 660,-104 666,-104 672,-110 672,-116 672,-116 672,-175 672,-175 672,-181 666,-187 660,-187"/>
<text text-anchor="start" x="353" y="-171.8" font-family="Helvetica,sans-Serif" font-size="14.00">Median_Household_Income_2021 ≤ 38758.0</text>
<text text-anchor="start" x="469" y="-156.8" font-family="Helvetica,sans-Serif" font-size="14.00">gini = 0.33</text>
<text text-anchor="start" x="460" y="-141.8" font-family="Helvetica,sans-Serif" font-size="14.00">samples = 24</text>
<text text-anchor="start" x="455.5" y="-126.8" font-family="Helvetica,sans-Serif" font-size="14.00">value = [19, 5]</text>
<text text-anchor="start" x="466.5" y="-111.8" font-family="Helvetica,sans-Serif" font-size="14.00">class = lose</text>
</g>
<!-- 2&#45;&gt;6 -->
<g id="edge6" class="edge">
<title>2&#45;&gt;6</title>
<path fill="none" stroke="black" d="M502.62,-222.91C503.26,-214.56 503.95,-205.67 504.61,-197.02"/>
<polygon fill="black" stroke="black" points="508.11,-197.26 505.38,-187.02 501.13,-196.72 508.11,-197.26"/>
</g>
<!-- 4 -->
<g id="node5" class="node">
<title>4</title>
<path fill="#f5cfb3" stroke="black" d="M122.5,-68C122.5,-68 24.5,-68 24.5,-68 18.5,-68 12.5,-62 12.5,-56 12.5,-56 12.5,-12 12.5,-12 12.5,-6 18.5,0 24.5,0 24.5,0 122.5,0 122.5,0 128.5,0 134.5,-6 134.5,-12 134.5,-12 134.5,-56 134.5,-56 134.5,-62 128.5,-68 122.5,-68"/>
<text text-anchor="start" x="29.5" y="-52.8" font-family="Helvetica,sans-Serif" font-size="14.00">gini = 0.472</text>
<text text-anchor="start" x="25" y="-37.8" font-family="Helvetica,sans-Serif" font-size="14.00">samples = 21</text>
<text text-anchor="start" x="20.5" y="-22.8" font-family="Helvetica,sans-Serif" font-size="14.00">value = [13, 8]</text>
<text text-anchor="start" x="31.5" y="-7.8" font-family="Helvetica,sans-Serif" font-size="14.00">class = lose</text>
</g>
<!-- 3&#45;&gt;4 -->
<g id="edge4" class="edge">
<title>3&#45;&gt;4</title>
<path fill="none" stroke="black" d="M129.99,-103.73C122.57,-94.7 114.7,-85.12 107.27,-76.08"/>
<polygon fill="black" stroke="black" points="109.92,-73.8 100.87,-68.3 104.52,-78.25 109.92,-73.8"/>
</g>
<!-- 5 -->
<g id="node6" class="node">
<title>5</title>
<path fill="#77bbed" stroke="black" d="M280.5,-68C280.5,-68 164.5,-68 164.5,-68 158.5,-68 152.5,-62 152.5,-56 152.5,-56 152.5,-12 152.5,-12 152.5,-6 158.5,0 164.5,0 164.5,0 280.5,0 280.5,0 286.5,0 292.5,-6 292.5,-12 292.5,-12 292.5,-56 292.5,-56 292.5,-62 286.5,-68 280.5,-68"/>
<text text-anchor="start" x="178.5" y="-52.8" font-family="Helvetica,sans-Serif" font-size="14.00">gini = 0.362</text>
<text text-anchor="start" x="169.5" y="-37.8" font-family="Helvetica,sans-Serif" font-size="14.00">samples = 177</text>
<text text-anchor="start" x="160.5" y="-22.8" font-family="Helvetica,sans-Serif" font-size="14.00">value = [42, 135]</text>
<text text-anchor="start" x="182.5" y="-7.8" font-family="Helvetica,sans-Serif" font-size="14.00">class = win</text>
</g>
<!-- 3&#45;&gt;5 -->
<g id="edge5" class="edge">
<title>3&#45;&gt;5</title>
<path fill="none" stroke="black" d="M185.47,-103.73C190.14,-95.06 195.08,-85.9 199.77,-77.18"/>
<polygon fill="black" stroke="black" points="202.9,-78.76 204.56,-68.3 196.73,-75.44 202.9,-78.76"/>
</g>
<!-- 7 -->
<g id="node8" class="node">
<title>7</title>
<path fill="#e58139" stroke="black" d="M475.5,-68C475.5,-68 377.5,-68 377.5,-68 371.5,-68 365.5,-62 365.5,-56 365.5,-56 365.5,-12 365.5,-12 365.5,-6 371.5,0 377.5,0 377.5,0 475.5,0 475.5,0 481.5,0 487.5,-6 487.5,-12 487.5,-12 487.5,-56 487.5,-56 487.5,-62 481.5,-68 475.5,-68"/>
<text text-anchor="start" x="391.5" y="-52.8" font-family="Helvetica,sans-Serif" font-size="14.00">gini = 0.0</text>
<text text-anchor="start" x="378" y="-37.8" font-family="Helvetica,sans-Serif" font-size="14.00">samples = 10</text>
<text text-anchor="start" x="373.5" y="-22.8" font-family="Helvetica,sans-Serif" font-size="14.00">value = [10, 0]</text>
<text text-anchor="start" x="384.5" y="-7.8" font-family="Helvetica,sans-Serif" font-size="14.00">class = lose</text>
</g>
<!-- 6&#45;&gt;7 -->
<g id="edge7" class="edge">
<title>6&#45;&gt;7</title>
<path fill="none" stroke="black" d="M477.97,-103.73C471.27,-94.79 464.18,-85.32 457.47,-76.36"/>
<polygon fill="black" stroke="black" points="460.23,-74.21 451.44,-68.3 454.63,-78.4 460.23,-74.21"/>
</g>
<!-- 8 -->
<g id="node9" class="node">
<title>8</title>
<path fill="#f3c7a7" stroke="black" d="M607,-68C607,-68 518,-68 518,-68 512,-68 506,-62 506,-56 506,-56 506,-12 506,-12 506,-6 512,0 518,0 518,0 607,0 607,0 613,0 619,-6 619,-12 619,-12 619,-56 619,-56 619,-62 613,-68 607,-68"/>
<text text-anchor="start" x="518.5" y="-52.8" font-family="Helvetica,sans-Serif" font-size="14.00">gini = 0.459</text>
<text text-anchor="start" x="514" y="-37.8" font-family="Helvetica,sans-Serif" font-size="14.00">samples = 14</text>
<text text-anchor="start" x="514" y="-22.8" font-family="Helvetica,sans-Serif" font-size="14.00">value = [9, 5]</text>
<text text-anchor="start" x="520.5" y="-7.8" font-family="Helvetica,sans-Serif" font-size="14.00">class = lose</text>
</g>
<!-- 6&#45;&gt;8 -->
<g id="edge8" class="edge">
<title>6&#45;&gt;8</title>
<path fill="none" stroke="black" d="M528.61,-103.73C532.84,-95.15 537.31,-86.09 541.56,-77.46"/>
<polygon fill="black" stroke="black" points="544.79,-78.82 546.08,-68.3 538.52,-75.72 544.79,-78.82"/>
</g>
<!-- 10 -->
<g id="node11" class="node">
<title>10</title>
<path fill="#3fa0e6" stroke="black" d="M988,-187C988,-187 759,-187 759,-187 753,-187 747,-181 747,-175 747,-175 747,-116 747,-116 747,-110 753,-104 759,-104 759,-104 988,-104 988,-104 994,-104 1000,-110 1000,-116 1000,-116 1000,-175 1000,-175 1000,-181 994,-187 988,-187"/>
<text text-anchor="start" x="755" y="-171.8" font-family="Helvetica,sans-Serif" font-size="14.00">Unemployment_rate_2019 ≤ 4.45</text>
<text text-anchor="start" x="829.5" y="-156.8" font-family="Helvetica,sans-Serif" font-size="14.00">gini = 0.059</text>
<text text-anchor="start" x="816" y="-141.8" font-family="Helvetica,sans-Serif" font-size="14.00">samples = 1281</text>
<text text-anchor="start" x="807" y="-126.8" font-family="Helvetica,sans-Serif" font-size="14.00">value = [39, 1242]</text>
<text text-anchor="start" x="833.5" y="-111.8" font-family="Helvetica,sans-Serif" font-size="14.00">class = win</text>
</g>
<!-- 9&#45;&gt;10 -->
<g id="edge10" class="edge">
<title>9&#45;&gt;10</title>
<path fill="none" stroke="black" d="M977.34,-222.91C964.26,-213.29 950.22,-202.95 936.82,-193.09"/>
<polygon fill="black" stroke="black" points="938.7,-190.13 928.57,-187.02 934.55,-195.77 938.7,-190.13"/>
</g>
<!-- 13 -->
<g id="node14" class="node">
<title>13</title>
<path fill="#5aade9" stroke="black" d="M1259,-187C1259,-187 1030,-187 1030,-187 1024,-187 1018,-181 1018,-175 1018,-175 1018,-116 1018,-116 1018,-110 1024,-104 1030,-104 1030,-104 1259,-104 1259,-104 1265,-104 1271,-110 1271,-116 1271,-116 1271,-175 1271,-175 1271,-181 1265,-187 1259,-187"/>
<text text-anchor="start" x="1026" y="-171.8" font-family="Helvetica,sans-Serif" font-size="14.00">Unemployment_rate_2019 ≤ 3.35</text>
<text text-anchor="start" x="1100.5" y="-156.8" font-family="Helvetica,sans-Serif" font-size="14.00">gini = 0.244</text>
<text text-anchor="start" x="1091.5" y="-141.8" font-family="Helvetica,sans-Serif" font-size="14.00">samples = 618</text>
<text text-anchor="start" x="1082.5" y="-126.8" font-family="Helvetica,sans-Serif" font-size="14.00">value = [88, 530]</text>
<text text-anchor="start" x="1104.5" y="-111.8" font-family="Helvetica,sans-Serif" font-size="14.00">class = win</text>
</g>
<!-- 9&#45;&gt;13 -->
<g id="edge13" class="edge">
<title>9&#45;&gt;13</title>
<path fill="none" stroke="black" d="M1071.36,-222.91C1080.13,-213.74 1089.53,-203.93 1098.56,-194.49"/>
<polygon fill="black" stroke="black" points="1101.32,-196.66 1105.71,-187.02 1096.27,-191.82 1101.32,-196.66"/>
</g>
<!-- 11 -->
<g id="node12" class="node">
<title>11</title>
<path fill="#3b9ee5" stroke="black" d="M790.5,-68C790.5,-68 674.5,-68 674.5,-68 668.5,-68 662.5,-62 662.5,-56 662.5,-56 662.5,-12 662.5,-12 662.5,-6 668.5,0 674.5,0 674.5,0 790.5,0 790.5,0 796.5,0 802.5,-6 802.5,-12 802.5,-12 802.5,-56 802.5,-56 802.5,-62 796.5,-68 790.5,-68"/>
<text text-anchor="start" x="688.5" y="-52.8" font-family="Helvetica,sans-Serif" font-size="14.00">gini = 0.024</text>
<text text-anchor="start" x="679.5" y="-37.8" font-family="Helvetica,sans-Serif" font-size="14.00">samples = 908</text>
<text text-anchor="start" x="670.5" y="-22.8" font-family="Helvetica,sans-Serif" font-size="14.00">value = [11, 897]</text>
<text text-anchor="start" x="692.5" y="-7.8" font-family="Helvetica,sans-Serif" font-size="14.00">class = win</text>
</g>
<!-- 10&#45;&gt;11 -->
<g id="edge11" class="edge">
<title>10&#45;&gt;11</title>
<path fill="none" stroke="black" d="M821,-103.73C808.66,-94.15 795.55,-83.96 783.29,-74.44"/>
<polygon fill="black" stroke="black" points="785.42,-71.67 775.38,-68.3 781.13,-77.2 785.42,-71.67"/>
</g>
<!-- 12 -->
<g id="node13" class="node">
<title>12</title>
<path fill="#49a5e7" stroke="black" d="M976,-68C976,-68 833,-68 833,-68 827,-68 821,-62 821,-56 821,-56 821,-12 821,-12 821,-6 827,0 833,0 833,0 976,0 976,0 982,0 988,-6 988,-12 988,-12 988,-56 988,-56 988,-62 982,-68 976,-68"/>
<text text-anchor="start" x="860.5" y="-52.8" font-family="Helvetica,sans-Serif" font-size="14.00">gini = 0.139</text>
<text text-anchor="start" x="851.5" y="-37.8" font-family="Helvetica,sans-Serif" font-size="14.00">samples = 373</text>
<text text-anchor="start" x="829" y="-22.8" font-family="Helvetica,sans-Serif" font-size="14.00">value = [28.0, 345.0]</text>
<text text-anchor="start" x="864.5" y="-7.8" font-family="Helvetica,sans-Serif" font-size="14.00">class = win</text>
</g>
<!-- 10&#45;&gt;12 -->
<g id="edge12" class="edge">
<title>10&#45;&gt;12</title>
<path fill="none" stroke="black" d="M885.04,-103.73C887.42,-95.34 889.93,-86.47 892.32,-78.01"/>
<polygon fill="black" stroke="black" points="895.72,-78.87 895.07,-68.3 888.98,-76.97 895.72,-78.87"/>
</g>
<!-- 14 -->
<g id="node15" class="node">
<title>14</title>
<path fill="#45a3e7" stroke="black" d="M1147.5,-68C1147.5,-68 1031.5,-68 1031.5,-68 1025.5,-68 1019.5,-62 1019.5,-56 1019.5,-56 1019.5,-12 1019.5,-12 1019.5,-6 1025.5,0 1031.5,0 1031.5,0 1147.5,0 1147.5,0 1153.5,0 1159.5,-6 1159.5,-12 1159.5,-12 1159.5,-56 1159.5,-56 1159.5,-62 1153.5,-68 1147.5,-68"/>
<text text-anchor="start" x="1045.5" y="-52.8" font-family="Helvetica,sans-Serif" font-size="14.00">gini = 0.104</text>
<text text-anchor="start" x="1036.5" y="-37.8" font-family="Helvetica,sans-Serif" font-size="14.00">samples = 309</text>
<text text-anchor="start" x="1027.5" y="-22.8" font-family="Helvetica,sans-Serif" font-size="14.00">value = [17, 292]</text>
<text text-anchor="start" x="1049.5" y="-7.8" font-family="Helvetica,sans-Serif" font-size="14.00">class = win</text>
</g>
<!-- 13&#45;&gt;14 -->
<g id="edge14" class="edge">
<title>13&#45;&gt;14</title>
<path fill="none" stroke="black" d="M1124.02,-103.73C1119.71,-95.15 1115.16,-86.09 1110.82,-77.46"/>
<polygon fill="black" stroke="black" points="1113.84,-75.66 1106.23,-68.3 1107.59,-78.81 1113.84,-75.66"/>
</g>
<!-- 15 -->
<g id="node16" class="node">
<title>15</title>
<path fill="#74baed" stroke="black" d="M1305.5,-68C1305.5,-68 1189.5,-68 1189.5,-68 1183.5,-68 1177.5,-62 1177.5,-56 1177.5,-56 1177.5,-12 1177.5,-12 1177.5,-6 1183.5,0 1189.5,0 1189.5,0 1305.5,0 1305.5,0 1311.5,0 1317.5,-6 1317.5,-12 1317.5,-12 1317.5,-56 1317.5,-56 1317.5,-62 1311.5,-68 1305.5,-68"/>
<text text-anchor="start" x="1203.5" y="-52.8" font-family="Helvetica,sans-Serif" font-size="14.00">gini = 0.354</text>
<text text-anchor="start" x="1194.5" y="-37.8" font-family="Helvetica,sans-Serif" font-size="14.00">samples = 309</text>
<text text-anchor="start" x="1185.5" y="-22.8" font-family="Helvetica,sans-Serif" font-size="14.00">value = [71, 238]</text>
<text text-anchor="start" x="1207.5" y="-7.8" font-family="Helvetica,sans-Serif" font-size="14.00">class = win</text>
</g>
<!-- 13&#45;&gt;15 -->
<g id="edge15" class="edge">
<title>13&#45;&gt;15</title>
<path fill="none" stroke="black" d="M1182.85,-103.73C1191.43,-94.61 1200.53,-84.93 1209.11,-75.81"/>
<polygon fill="black" stroke="black" points="1211.87,-77.98 1216.18,-68.3 1206.78,-73.19 1211.87,-77.98"/>
</g>
<!-- 17 -->
<g id="node18" class="node">
<title>17</title>
<path fill="#cfe7f9" stroke="black" d="M1826.5,-306C1826.5,-306 1320.5,-306 1320.5,-306 1314.5,-306 1308.5,-300 1308.5,-294 1308.5,-294 1308.5,-235 1308.5,-235 1308.5,-229 1314.5,-223 1320.5,-223 1320.5,-223 1826.5,-223 1826.5,-223 1832.5,-223 1838.5,-229 1838.5,-235 1838.5,-235 1838.5,-294 1838.5,-294 1838.5,-300 1832.5,-306 1826.5,-306"/>
<text text-anchor="start" x="1316.5" y="-290.8" font-family="Helvetica,sans-Serif" font-size="14.00">Percent of adults with less than a high school diploma, 2018&#45;22 ≤ 10.493</text>
<text text-anchor="start" x="1534" y="-275.8" font-family="Helvetica,sans-Serif" font-size="14.00">gini = 0.49</text>
<text text-anchor="start" x="1520.5" y="-260.8" font-family="Helvetica,sans-Serif" font-size="14.00">samples = 172</text>
<text text-anchor="start" x="1516" y="-245.8" font-family="Helvetica,sans-Serif" font-size="14.00">value = [74, 98]</text>
<text text-anchor="start" x="1533.5" y="-230.8" font-family="Helvetica,sans-Serif" font-size="14.00">class = win</text>
</g>
<!-- 16&#45;&gt;17 -->
<g id="edge17" class="edge">
<title>16&#45;&gt;17</title>
<path fill="none" stroke="black" d="M1573.5,-341.91C1573.5,-333.65 1573.5,-324.86 1573.5,-316.3"/>
<polygon fill="black" stroke="black" points="1577,-316.02 1573.5,-306.02 1570,-316.02 1577,-316.02"/>
</g>
<!-- 24 -->
<g id="node25" class="node">
<title>24</title>
<path fill="#eda572" stroke="black" d="M2366,-306C2366,-306 1869,-306 1869,-306 1863,-306 1857,-300 1857,-294 1857,-294 1857,-235 1857,-235 1857,-229 1863,-223 1869,-223 1869,-223 2366,-223 2366,-223 2372,-223 2378,-229 2378,-235 2378,-235 2378,-294 2378,-294 2378,-300 2372,-306 2366,-306"/>
<text text-anchor="start" x="1865" y="-290.8" font-family="Helvetica,sans-Serif" font-size="14.00">Percent of adults with less than a high school diploma, 2018&#45;22 ≤ 6.393</text>
<text text-anchor="start" x="2073.5" y="-275.8" font-family="Helvetica,sans-Serif" font-size="14.00">gini = 0.348</text>
<text text-anchor="start" x="2064.5" y="-260.8" font-family="Helvetica,sans-Serif" font-size="14.00">samples = 187</text>
<text text-anchor="start" x="2055.5" y="-245.8" font-family="Helvetica,sans-Serif" font-size="14.00">value = [145, 42]</text>
<text text-anchor="start" x="2075.5" y="-230.8" font-family="Helvetica,sans-Serif" font-size="14.00">class = lose</text>
</g>
<!-- 16&#45;&gt;24 -->
<g id="edge24" class="edge">
<title>16&#45;&gt;24</title>
<path fill="none" stroke="black" d="M1761.86,-341.99C1812.62,-331.07 1867.68,-319.23 1918.98,-308.2"/>
<polygon fill="black" stroke="black" points="1919.8,-311.6 1928.85,-306.07 1918.33,-304.76 1919.8,-311.6"/>
</g>
<!-- 18 -->
<g id="node19" class="node">
<title>18</title>
<path fill="#aed7f4" stroke="black" d="M1628,-187C1628,-187 1325,-187 1325,-187 1319,-187 1313,-181 1313,-175 1313,-175 1313,-116 1313,-116 1313,-110 1319,-104 1325,-104 1325,-104 1628,-104 1628,-104 1634,-104 1640,-110 1640,-116 1640,-116 1640,-175 1640,-175 1640,-181 1634,-187 1628,-187"/>
<text text-anchor="start" x="1321" y="-171.8" font-family="Helvetica,sans-Serif" font-size="14.00">Median_Household_Income_2021 ≤ 66966.5</text>
<text text-anchor="start" x="1432.5" y="-156.8" font-family="Helvetica,sans-Serif" font-size="14.00">gini = 0.467</text>
<text text-anchor="start" x="1423.5" y="-141.8" font-family="Helvetica,sans-Serif" font-size="14.00">samples = 145</text>
<text text-anchor="start" x="1419" y="-126.8" font-family="Helvetica,sans-Serif" font-size="14.00">value = [54, 91]</text>
<text text-anchor="start" x="1436.5" y="-111.8" font-family="Helvetica,sans-Serif" font-size="14.00">class = win</text>
</g>
<!-- 17&#45;&gt;18 -->
<g id="edge18" class="edge">
<title>17&#45;&gt;18</title>
<path fill="none" stroke="black" d="M1539.85,-222.91C1532.32,-213.83 1524.27,-204.12 1516.52,-194.77"/>
<polygon fill="black" stroke="black" points="1519.17,-192.49 1510.09,-187.02 1513.78,-196.95 1519.17,-192.49"/>
</g>
<!-- 21 -->
<g id="node22" class="node">
<title>21</title>
<path fill="#eead7e" stroke="black" d="M1899,-187C1899,-187 1670,-187 1670,-187 1664,-187 1658,-181 1658,-175 1658,-175 1658,-116 1658,-116 1658,-110 1664,-104 1670,-104 1670,-104 1899,-104 1899,-104 1905,-104 1911,-110 1911,-116 1911,-116 1911,-175 1911,-175 1911,-181 1905,-187 1899,-187"/>
<text text-anchor="start" x="1666" y="-171.8" font-family="Helvetica,sans-Serif" font-size="14.00">Unemployment_rate_2019 ≤ 2.45</text>
<text text-anchor="start" x="1740.5" y="-156.8" font-family="Helvetica,sans-Serif" font-size="14.00">gini = 0.384</text>
<text text-anchor="start" x="1736" y="-141.8" font-family="Helvetica,sans-Serif" font-size="14.00">samples = 27</text>
<text text-anchor="start" x="1731.5" y="-126.8" font-family="Helvetica,sans-Serif" font-size="14.00">value = [20, 7]</text>
<text text-anchor="start" x="1742.5" y="-111.8" font-family="Helvetica,sans-Serif" font-size="14.00">class = lose</text>
</g>
<!-- 17&#45;&gt;21 -->
<g id="edge21" class="edge">
<title>17&#45;&gt;21</title>
<path fill="none" stroke="black" d="M1646.71,-222.91C1664.71,-212.92 1684.1,-202.17 1702.49,-191.98"/>
<polygon fill="black" stroke="black" points="1704.38,-194.93 1711.42,-187.02 1700.98,-188.81 1704.38,-194.93"/>
</g>
<!-- 19 -->
<g id="node20" class="node">
<title>19</title>
<path fill="#f8ddca" stroke="black" d="M1487.5,-68C1487.5,-68 1353.5,-68 1353.5,-68 1347.5,-68 1341.5,-62 1341.5,-56 1341.5,-56 1341.5,-12 1341.5,-12 1341.5,-6 1347.5,0 1353.5,0 1353.5,0 1487.5,0 1487.5,0 1493.5,0 1499.5,-6 1499.5,-12 1499.5,-12 1499.5,-56 1499.5,-56 1499.5,-62 1493.5,-68 1487.5,-68"/>
<text text-anchor="start" x="1376.5" y="-52.8" font-family="Helvetica,sans-Serif" font-size="14.00">gini = 0.488</text>
<text text-anchor="start" x="1372" y="-37.8" font-family="Helvetica,sans-Serif" font-size="14.00">samples = 45</text>
<text text-anchor="start" x="1349.5" y="-22.8" font-family="Helvetica,sans-Serif" font-size="14.00">value = [26.0, 19.0]</text>
<text text-anchor="start" x="1378.5" y="-7.8" font-family="Helvetica,sans-Serif" font-size="14.00">class = lose</text>
</g>
<!-- 18&#45;&gt;19 -->
<g id="edge19" class="edge">
<title>18&#45;&gt;19</title>
<path fill="none" stroke="black" d="M1455.65,-103.73C1451.26,-95.15 1446.63,-86.09 1442.21,-77.46"/>
<polygon fill="black" stroke="black" points="1445.2,-75.61 1437.53,-68.3 1438.97,-78.8 1445.2,-75.61"/>
</g>
<!-- 20 -->
<g id="node21" class="node">
<title>20</title>
<path fill="#86c3ef" stroke="black" d="M1663.5,-68C1663.5,-68 1529.5,-68 1529.5,-68 1523.5,-68 1517.5,-62 1517.5,-56 1517.5,-56 1517.5,-12 1517.5,-12 1517.5,-6 1523.5,0 1529.5,0 1529.5,0 1663.5,0 1663.5,0 1669.5,0 1675.5,-6 1675.5,-12 1675.5,-12 1675.5,-56 1675.5,-56 1675.5,-62 1669.5,-68 1663.5,-68"/>
<text text-anchor="start" x="1552.5" y="-52.8" font-family="Helvetica,sans-Serif" font-size="14.00">gini = 0.403</text>
<text text-anchor="start" x="1543.5" y="-37.8" font-family="Helvetica,sans-Serif" font-size="14.00">samples = 100</text>
<text text-anchor="start" x="1525.5" y="-22.8" font-family="Helvetica,sans-Serif" font-size="14.00">value = [28.0, 72.0]</text>
<text text-anchor="start" x="1556.5" y="-7.8" font-family="Helvetica,sans-Serif" font-size="14.00">class = win</text>
</g>
<!-- 18&#45;&gt;20 -->
<g id="edge20" class="edge">
<title>18&#45;&gt;20</title>
<path fill="none" stroke="black" d="M1521.18,-103.73C1531.38,-94.42 1542.21,-84.54 1552.38,-75.26"/>
<polygon fill="black" stroke="black" points="1554.98,-77.63 1560.01,-68.3 1550.26,-72.45 1554.98,-77.63"/>
</g>
<!-- 22 -->
<g id="node23" class="node">
<title>22</title>
<path fill="#399de5" stroke="black" d="M1798,-68C1798,-68 1709,-68 1709,-68 1703,-68 1697,-62 1697,-56 1697,-56 1697,-12 1697,-12 1697,-6 1703,0 1709,0 1709,0 1798,0 1798,0 1804,0 1810,-6 1810,-12 1810,-12 1810,-56 1810,-56 1810,-62 1804,-68 1798,-68"/>
<text text-anchor="start" x="1718.5" y="-52.8" font-family="Helvetica,sans-Serif" font-size="14.00">gini = 0.0</text>
<text text-anchor="start" x="1709.5" y="-37.8" font-family="Helvetica,sans-Serif" font-size="14.00">samples = 2</text>
<text text-anchor="start" x="1705" y="-22.8" font-family="Helvetica,sans-Serif" font-size="14.00">value = [0, 2]</text>
<text text-anchor="start" x="1713.5" y="-7.8" font-family="Helvetica,sans-Serif" font-size="14.00">class = win</text>
</g>
<!-- 21&#45;&gt;22 -->
<g id="edge22" class="edge">
<title>21&#45;&gt;22</title>
<path fill="none" stroke="black" d="M1772.96,-103.73C1770.58,-95.34 1768.07,-86.47 1765.68,-78.01"/>
<polygon fill="black" stroke="black" points="1769.02,-76.97 1762.93,-68.3 1762.28,-78.87 1769.02,-76.97"/>
</g>
<!-- 23 -->
<g id="node24" class="node">
<title>23</title>
<path fill="#eca06a" stroke="black" d="M1938.5,-68C1938.5,-68 1840.5,-68 1840.5,-68 1834.5,-68 1828.5,-62 1828.5,-56 1828.5,-56 1828.5,-12 1828.5,-12 1828.5,-6 1834.5,0 1840.5,0 1840.5,0 1938.5,0 1938.5,0 1944.5,0 1950.5,-6 1950.5,-12 1950.5,-12 1950.5,-56 1950.5,-56 1950.5,-62 1944.5,-68 1938.5,-68"/>
<text text-anchor="start" x="1850" y="-52.8" font-family="Helvetica,sans-Serif" font-size="14.00">gini = 0.32</text>
<text text-anchor="start" x="1841" y="-37.8" font-family="Helvetica,sans-Serif" font-size="14.00">samples = 25</text>
<text text-anchor="start" x="1836.5" y="-22.8" font-family="Helvetica,sans-Serif" font-size="14.00">value = [20, 5]</text>
<text text-anchor="start" x="1847.5" y="-7.8" font-family="Helvetica,sans-Serif" font-size="14.00">class = lose</text>
</g>
<!-- 21&#45;&gt;23 -->
<g id="edge23" class="edge">
<title>21&#45;&gt;23</title>
<path fill="none" stroke="black" d="M1823.6,-103.73C1832.43,-94.51 1841.81,-84.74 1850.63,-75.53"/>
<polygon fill="black" stroke="black" points="1853.17,-77.94 1857.57,-68.3 1848.12,-73.1 1853.17,-77.94"/>
</g>
<!-- 25 -->
<g id="node26" class="node">
<title>25</title>
<path fill="#f2bf9b" stroke="black" d="M2261,-187C2261,-187 1958,-187 1958,-187 1952,-187 1946,-181 1946,-175 1946,-175 1946,-116 1946,-116 1946,-110 1952,-104 1958,-104 1958,-104 2261,-104 2261,-104 2267,-104 2273,-110 2273,-116 2273,-116 2273,-175 2273,-175 2273,-181 2267,-187 2261,-187"/>
<text text-anchor="start" x="1954" y="-171.8" font-family="Helvetica,sans-Serif" font-size="14.00">Median_Household_Income_2021 ≤ 86501.5</text>
<text text-anchor="start" x="2065.5" y="-156.8" font-family="Helvetica,sans-Serif" font-size="14.00">gini = 0.442</text>
<text text-anchor="start" x="2056.5" y="-141.8" font-family="Helvetica,sans-Serif" font-size="14.00">samples = 106</text>
<text text-anchor="start" x="2052" y="-126.8" font-family="Helvetica,sans-Serif" font-size="14.00">value = [71, 35]</text>
<text text-anchor="start" x="2067.5" y="-111.8" font-family="Helvetica,sans-Serif" font-size="14.00">class = lose</text>
</g>
<!-- 24&#45;&gt;25 -->
<g id="edge25" class="edge">
<title>24&#45;&gt;25</title>
<path fill="none" stroke="black" d="M2114.72,-222.91C2114.15,-214.56 2113.55,-205.67 2112.95,-197.02"/>
<polygon fill="black" stroke="black" points="2116.44,-196.76 2112.27,-187.02 2109.46,-197.24 2116.44,-196.76"/>
</g>
<!-- 28 -->
<g id="node29" class="node">
<title>28</title>
<path fill="#e78d4c" stroke="black" d="M2606,-187C2606,-187 2303,-187 2303,-187 2297,-187 2291,-181 2291,-175 2291,-175 2291,-116 2291,-116 2291,-110 2297,-104 2303,-104 2303,-104 2606,-104 2606,-104 2612,-104 2618,-110 2618,-116 2618,-116 2618,-175 2618,-175 2618,-181 2612,-187 2606,-187"/>
<text text-anchor="start" x="2299" y="-171.8" font-family="Helvetica,sans-Serif" font-size="14.00">Median_Household_Income_2021 ≤ 53805.5</text>
<text text-anchor="start" x="2410.5" y="-156.8" font-family="Helvetica,sans-Serif" font-size="14.00">gini = 0.158</text>
<text text-anchor="start" x="2406" y="-141.8" font-family="Helvetica,sans-Serif" font-size="14.00">samples = 81</text>
<text text-anchor="start" x="2401.5" y="-126.8" font-family="Helvetica,sans-Serif" font-size="14.00">value = [74, 7]</text>
<text text-anchor="start" x="2412.5" y="-111.8" font-family="Helvetica,sans-Serif" font-size="14.00">class = lose</text>
</g>
<!-- 24&#45;&gt;28 -->
<g id="edge28" class="edge">
<title>24&#45;&gt;28</title>
<path fill="none" stroke="black" d="M2234.42,-222.91C2264.74,-212.38 2297.53,-201 2328.3,-190.31"/>
<polygon fill="black" stroke="black" points="2329.49,-193.61 2337.79,-187.02 2327.19,-186.99 2329.49,-193.61"/>
</g>
<!-- 26 -->
<g id="node27" class="node">
<title>26</title>
<path fill="#ea995f" stroke="black" d="M2118.5,-68C2118.5,-68 2020.5,-68 2020.5,-68 2014.5,-68 2008.5,-62 2008.5,-56 2008.5,-56 2008.5,-12 2008.5,-12 2008.5,-6 2014.5,0 2020.5,0 2020.5,0 2118.5,0 2118.5,0 2124.5,0 2130.5,-6 2130.5,-12 2130.5,-12 2130.5,-56 2130.5,-56 2130.5,-62 2124.5,-68 2118.5,-68"/>
<text text-anchor="start" x="2025.5" y="-52.8" font-family="Helvetica,sans-Serif" font-size="14.00">gini = 0.269</text>
<text text-anchor="start" x="2021" y="-37.8" font-family="Helvetica,sans-Serif" font-size="14.00">samples = 50</text>
<text text-anchor="start" x="2016.5" y="-22.8" font-family="Helvetica,sans-Serif" font-size="14.00">value = [42, 8]</text>
<text text-anchor="start" x="2027.5" y="-7.8" font-family="Helvetica,sans-Serif" font-size="14.00">class = lose</text>
</g>
<!-- 25&#45;&gt;26 -->
<g id="edge26" class="edge">
<title>25&#45;&gt;26</title>
<path fill="none" stroke="black" d="M2094.61,-103.73C2091.51,-95.24 2088.23,-86.28 2085.11,-77.73"/>
<polygon fill="black" stroke="black" points="2088.38,-76.49 2081.66,-68.3 2081.81,-78.89 2088.38,-76.49"/>
</g>
<!-- 27 -->
<g id="node28" class="node">
<title>27</title>
<path fill="#fdf6f1" stroke="black" d="M2294.5,-68C2294.5,-68 2160.5,-68 2160.5,-68 2154.5,-68 2148.5,-62 2148.5,-56 2148.5,-56 2148.5,-12 2148.5,-12 2148.5,-6 2154.5,0 2160.5,0 2160.5,0 2294.5,0 2294.5,0 2300.5,0 2306.5,-6 2306.5,-12 2306.5,-12 2306.5,-56 2306.5,-56 2306.5,-62 2300.5,-68 2294.5,-68"/>
<text text-anchor="start" x="2183.5" y="-52.8" font-family="Helvetica,sans-Serif" font-size="14.00">gini = 0.499</text>
<text text-anchor="start" x="2179" y="-37.8" font-family="Helvetica,sans-Serif" font-size="14.00">samples = 56</text>
<text text-anchor="start" x="2156.5" y="-22.8" font-family="Helvetica,sans-Serif" font-size="14.00">value = [29.0, 27.0]</text>
<text text-anchor="start" x="2185.5" y="-7.8" font-family="Helvetica,sans-Serif" font-size="14.00">class = lose</text>
</g>
<!-- 25&#45;&gt;27 -->
<g id="edge27" class="edge">
<title>25&#45;&gt;27</title>
<path fill="none" stroke="black" d="M2153.44,-103.73C2163.46,-94.42 2174.11,-84.54 2184.11,-75.26"/>
<polygon fill="black" stroke="black" points="2186.67,-77.67 2191.62,-68.3 2181.9,-72.54 2186.67,-77.67"/>
</g>
<!-- 29 -->
<g id="node30" class="node">
<title>29</title>
<path fill="#f6d5bd" stroke="black" d="M2442,-68C2442,-68 2353,-68 2353,-68 2347,-68 2341,-62 2341,-56 2341,-56 2341,-12 2341,-12 2341,-6 2347,0 2353,0 2353,0 2442,0 2442,0 2448,0 2454,-6 2454,-12 2454,-12 2454,-56 2454,-56 2454,-62 2448,-68 2442,-68"/>
<text text-anchor="start" x="2358" y="-52.8" font-family="Helvetica,sans-Serif" font-size="14.00">gini = 0.48</text>
<text text-anchor="start" x="2353.5" y="-37.8" font-family="Helvetica,sans-Serif" font-size="14.00">samples = 5</text>
<text text-anchor="start" x="2349" y="-22.8" font-family="Helvetica,sans-Serif" font-size="14.00">value = [3, 2]</text>
<text text-anchor="start" x="2355.5" y="-7.8" font-family="Helvetica,sans-Serif" font-size="14.00">class = lose</text>
</g>
<!-- 28&#45;&gt;29 -->
<g id="edge29" class="edge">
<title>28&#45;&gt;29</title>
<path fill="none" stroke="black" d="M2433.28,-103.73C2428.76,-95.06 2423.99,-85.9 2419.46,-77.18"/>
<polygon fill="black" stroke="black" points="2422.56,-75.55 2414.83,-68.3 2416.35,-78.79 2422.56,-75.55"/>
</g>
<!-- 30 -->
<g id="node31" class="node">
<title>30</title>
<path fill="#e78a47" stroke="black" d="M2582.5,-68C2582.5,-68 2484.5,-68 2484.5,-68 2478.5,-68 2472.5,-62 2472.5,-56 2472.5,-56 2472.5,-12 2472.5,-12 2472.5,-6 2478.5,0 2484.5,0 2484.5,0 2582.5,0 2582.5,0 2588.5,0 2594.5,-6 2594.5,-12 2594.5,-12 2594.5,-56 2594.5,-56 2594.5,-62 2588.5,-68 2582.5,-68"/>
<text text-anchor="start" x="2489.5" y="-52.8" font-family="Helvetica,sans-Serif" font-size="14.00">gini = 0.123</text>
<text text-anchor="start" x="2485" y="-37.8" font-family="Helvetica,sans-Serif" font-size="14.00">samples = 76</text>
<text text-anchor="start" x="2480.5" y="-22.8" font-family="Helvetica,sans-Serif" font-size="14.00">value = [71, 5]</text>
<text text-anchor="start" x="2491.5" y="-7.8" font-family="Helvetica,sans-Serif" font-size="14.00">class = lose</text>
</g>
<!-- 28&#45;&gt;30 -->
<g id="edge30" class="edge">
<title>28&#45;&gt;30</title>
<path fill="none" stroke="black" d="M2483.92,-103.73C2490.3,-94.88 2497.06,-85.51 2503.47,-76.63"/>
<polygon fill="black" stroke="black" points="2506.46,-78.46 2509.48,-68.3 2500.79,-74.36 2506.46,-78.46"/>
</g>
</g>
</svg>
