<?xml version="1.0" encoding="UTF-8" standalone="no"?>
<!DOCTYPE svg PUBLIC "-//W3C//DTD SVG 1.1//EN"
 "http://www.w3.org/Graphics/SVG/1.1/DTD/svg11.dtd">
<!-- Generated by graphviz version 2.43.0 (0)
 -->
<!-- Title: Tree Pages: 1 -->
<svg width="3528pt" height="552pt"
 viewBox="0.00 0.00 3528.00 552.00" xmlns="http://www.w3.org/2000/svg" xmlns:xlink="http://www.w3.org/1999/xlink">
<g id="graph0" class="graph" transform="scale(1 1) rotate(0) translate(4 548)">
<title>Tree</title>
<polygon fill="white" stroke="transparent" points="-4,4 -4,-548 3524,-548 3524,4 -4,4"/>
<!-- 0 -->
<g id="node1" class="node">
<title>0</title>
<path fill="#63b2ea" stroke="black" d="M1781,-544C1781,-544 1290,-544 1290,-544 1284,-544 1278,-538 1278,-532 1278,-532 1278,-473 1278,-473 1278,-467 1284,-461 1290,-461 1290,-461 1781,-461 1781,-461 1787,-461 1793,-467 1793,-473 1793,-473 1793,-532 1793,-532 1793,-538 1787,-544 1781,-544"/>
<text text-anchor="start" x="1286" y="-528.8" font-family="Helvetica,sans-Serif" font-size="14.00">Percent of adults with a bachelor&#39;s degree or higher, 2018&#45;22 ≤ 34.897</text>
<text text-anchor="start" x="1491.5" y="-513.8" font-family="Helvetica,sans-Serif" font-size="14.00">gini = 0.287</text>
<text text-anchor="start" x="1478" y="-498.8" font-family="Helvetica,sans-Serif" font-size="14.00">samples = 2479</text>
<text text-anchor="start" x="1451" y="-483.8" font-family="Helvetica,sans-Serif" font-size="14.00">value = [430.0, 2049.0]</text>
<text text-anchor="start" x="1495.5" y="-468.8" font-family="Helvetica,sans-Serif" font-size="14.00">class = win</text>
</g>
<!-- 1 -->
<g id="node2" class="node">
<title>1</title>
<path fill="#50a8e8" stroke="black" d="M1417,-425C1417,-425 1114,-425 1114,-425 1108,-425 1102,-419 1102,-413 1102,-413 1102,-354 1102,-354 1102,-348 1108,-342 1114,-342 1114,-342 1417,-342 1417,-342 1423,-342 1429,-348 1429,-354 1429,-354 1429,-413 1429,-413 1429,-419 1423,-425 1417,-425"/>
<text text-anchor="start" x="1110" y="-409.8" font-family="Helvetica,sans-Serif" font-size="14.00">Median_Household_Income_2021 ≤ 42102.0</text>
<text text-anchor="start" x="1221.5" y="-394.8" font-family="Helvetica,sans-Serif" font-size="14.00">gini = 0.184</text>
<text text-anchor="start" x="1208" y="-379.8" font-family="Helvetica,sans-Serif" font-size="14.00">samples = 2165</text>
<text text-anchor="start" x="1194.5" y="-364.8" font-family="Helvetica,sans-Serif" font-size="14.00">value = [222, 1943]</text>
<text text-anchor="start" x="1225.5" y="-349.8" font-family="Helvetica,sans-Serif" font-size="14.00">class = win</text>
</g>
<!-- 0&#45;&gt;1 -->
<g id="edge1" class="edge">
<title>0&#45;&gt;1</title>
<path fill="none" stroke="black" d="M1441.82,-460.91C1418.06,-450.61 1392.39,-439.49 1368.2,-429"/>
<polygon fill="black" stroke="black" points="1369.58,-425.79 1359.01,-425.02 1366.79,-432.21 1369.58,-425.79"/>
<text text-anchor="middle" x="1368.2" y="-444.57" font-family="Helvetica,sans-Serif" font-size="14.00">True</text>
</g>
<!-- 16 -->
<g id="node17" class="node">
<title>16</title>
<path fill="#f2c19e" stroke="black" d="M2449,-425C2449,-425 1958,-425 1958,-425 1952,-425 1946,-419 1946,-413 1946,-413 1946,-354 1946,-354 1946,-348 1952,-342 1958,-342 1958,-342 2449,-342 2449,-342 2455,-342 2461,-348 2461,-354 2461,-354 2461,-413 2461,-413 2461,-419 2455,-425 2449,-425"/>
<text text-anchor="start" x="1954" y="-409.8" font-family="Helvetica,sans-Serif" font-size="14.00">Percent of adults with a bachelor&#39;s degree or higher, 2018&#45;22 ≤ 40.197</text>
<text text-anchor="start" x="2159.5" y="-394.8" font-family="Helvetica,sans-Serif" font-size="14.00">gini = 0.447</text>
<text text-anchor="start" x="2150.5" y="-379.8" font-family="Helvetica,sans-Serif" font-size="14.00">samples = 314</text>
<text text-anchor="start" x="2137" y="-364.8" font-family="Helvetica,sans-Serif" font-size="14.00">value = [208, 106]</text>
<text text-anchor="start" x="2161.5" y="-349.8" font-family="Helvetica,sans-Serif" font-size="14.00">class = lose</text>
</g>
<!-- 0&#45;&gt;16 -->
<g id="edge16" class="edge">
<title>0&#45;&gt;16</title>
<path fill="none" stroke="black" d="M1766.79,-460.99C1829.86,-449.94 1898.34,-437.95 1961.96,-426.81"/>
<polygon fill="black" stroke="black" points="1962.88,-430.2 1972.13,-425.03 1961.67,-423.3 1962.88,-430.2"/>
<text text-anchor="middle" x="1957.76" y="-441.79" font-family="Helvetica,sans-Serif" font-size="14.00">False</text>
</g>
<!-- 2 -->
<g id="node3" class="node">
<title>2</title>
<path fill="#9fcff2" stroke="black" d="M754,-306C754,-306 263,-306 263,-306 257,-306 251,-300 251,-294 251,-294 251,-235 251,-235 251,-229 257,-223 263,-223 263,-223 754,-223 754,-223 760,-223 766,-229 766,-235 766,-235 766,-294 766,-294 766,-300 760,-306 754,-306"/>
<text text-anchor="start" x="259" y="-290.8" font-family="Helvetica,sans-Serif" font-size="14.00">Percent of adults with a bachelor&#39;s degree or higher, 2018&#45;22 ≤ 19.149</text>
<text text-anchor="start" x="464.5" y="-275.8" font-family="Helvetica,sans-Serif" font-size="14.00">gini = 0.448</text>
<text text-anchor="start" x="455.5" y="-260.8" font-family="Helvetica,sans-Serif" font-size="14.00">samples = 227</text>
<text text-anchor="start" x="446.5" y="-245.8" font-family="Helvetica,sans-Serif" font-size="14.00">value = [77, 150]</text>
<text text-anchor="start" x="468.5" y="-230.8" font-family="Helvetica,sans-Serif" font-size="14.00">class = win</text>
</g>
<!-- 1&#45;&gt;2 -->
<g id="edge2" class="edge">
<title>1&#45;&gt;2</title>
<path fill="none" stroke="black" d="M1101.71,-357.18C1006.75,-342.51 884.84,-323.67 776.27,-306.89"/>
<polygon fill="black" stroke="black" points="776.56,-303.39 766.14,-305.32 775.49,-310.31 776.56,-303.39"/>
</g>
<!-- 9 -->
<g id="node10" class="node">
<title>9</title>
<path fill="#49a5e7" stroke="black" d="M1511,-306C1511,-306 1020,-306 1020,-306 1014,-306 1008,-300 1008,-294 1008,-294 1008,-235 1008,-235 1008,-229 1014,-223 1020,-223 1020,-223 1511,-223 1511,-223 1517,-223 1523,-229 1523,-235 1523,-235 1523,-294 1523,-294 1523,-300 1517,-306 1511,-306"/>
<text text-anchor="start" x="1016" y="-290.8" font-family="Helvetica,sans-Serif" font-size="14.00">Percent of adults with a bachelor&#39;s degree or higher, 2018&#45;22 ≤ 28.631</text>
<text text-anchor="start" x="1221.5" y="-275.8" font-family="Helvetica,sans-Serif" font-size="14.00">gini = 0.138</text>
<text text-anchor="start" x="1208" y="-260.8" font-family="Helvetica,sans-Serif" font-size="14.00">samples = 1938</text>
<text text-anchor="start" x="1194.5" y="-245.8" font-family="Helvetica,sans-Serif" font-size="14.00">value = [145, 1793]</text>
<text text-anchor="start" x="1225.5" y="-230.8" font-family="Helvetica,sans-Serif" font-size="14.00">class = win</text>
</g>
<!-- 1&#45;&gt;9 -->
<g id="edge9" class="edge">
<title>1&#45;&gt;9</title>
<path fill="none" stroke="black" d="M1265.5,-341.91C1265.5,-333.65 1265.5,-324.86 1265.5,-316.3"/>
<polygon fill="black" stroke="black" points="1269,-316.02 1265.5,-306.02 1262,-316.02 1269,-316.02"/>
</g>
<!-- 3 -->
<g id="node4" class="node">
<title>3</title>
<path fill="#88c4ef" stroke="black" d="M315,-187C315,-187 12,-187 12,-187 6,-187 0,-181 0,-175 0,-175 0,-116 0,-116 0,-110 6,-104 12,-104 12,-104 315,-104 315,-104 321,-104 327,-110 327,-116 327,-116 327,-175 327,-175 327,-181 321,-187 315,-187"/>
<text text-anchor="start" x="8" y="-171.8" font-family="Helvetica,sans-Serif" font-size="14.00">Median_Household_Income_2021 ≤ 32794.0</text>
<text text-anchor="start" x="119.5" y="-156.8" font-family="Helvetica,sans-Serif" font-size="14.00">gini = 0.408</text>
<text text-anchor="start" x="110.5" y="-141.8" font-family="Helvetica,sans-Serif" font-size="14.00">samples = 203</text>
<text text-anchor="start" x="101.5" y="-126.8" font-family="Helvetica,sans-Serif" font-size="14.00">value = [58, 145]</text>
<text text-anchor="start" x="123.5" y="-111.8" font-family="Helvetica,sans-Serif" font-size="14.00">class = win</text>
</g>
<!-- 2&#45;&gt;3 -->
<g id="edge3" class="edge">
<title>2&#45;&gt;3</title>
<path fill="none" stroke="black" d="M388.8,-222.91C357.76,-212.38 324.2,-201 292.69,-190.31"/>
<polygon fill="black" stroke="black" points="293.58,-186.92 282.98,-187.02 291.33,-193.55 293.58,-186.92"/>
</g>
<!-- 6 -->
<g id="node7" class="node">
<title>6</title>
<path fill="#eca26d" stroke="black" d="M660,-187C660,-187 357,-187 357,-187 351,-187 345,-181 345,-175 345,-175 345,-116 345,-116 345,-110 351,-104 357,-104 357,-104 660,-104 660,-104 666,-104 672,-110 672,-116 672,-116 672,-175 672,-175 672,-181 666,-187 660,-187"/>
<text text-anchor="start" x="353" y="-171.8" font-family="Helvetica,sans-Serif" font-size="14.00">Median_Household_Income_2021 ≤ 38758.0</text>
<text text-anchor="start" x="469" y="-156.8" font-family="Helvetica,sans-Serif" font-size="14.00">gini = 0.33</text>
<text text-anchor="start" x="460" y="-141.8" font-family="Helvetica,sans-Serif" font-size="14.00">samples = 24</text>
<text text-anchor="start" x="455.5" y="-126.8" font-family="Helvetica,sans-Serif" font-size="14.00">value = [19, 5]</text>
<text text-anchor="start" x="466.5" y="-111.8" font-family="Helvetica,sans-Serif" font-size="14.00">class = lose</text>
</g>
<!-- 2&#45;&gt;6 -->
<g id="edge6" class="edge">
<title>2&#45;&gt;6</title>
<path fill="none" stroke="black" d="M508.5,-222.91C508.5,-214.65 508.5,-205.86 508.5,-197.3"/>
<polygon fill="black" stroke="black" points="512,-197.02 508.5,-187.02 505,-197.02 512,-197.02"/>
</g>
<!-- 4 -->
<g id="node5" class="node">
<title>4</title>
<path fill="#f3c5a4" stroke="black" d="M138.5,-68C138.5,-68 40.5,-68 40.5,-68 34.5,-68 28.5,-62 28.5,-56 28.5,-56 28.5,-12 28.5,-12 28.5,-6 34.5,0 40.5,0 40.5,0 138.5,0 138.5,0 144.5,0 150.5,-6 150.5,-12 150.5,-12 150.5,-56 150.5,-56 150.5,-62 144.5,-68 138.5,-68"/>
<text text-anchor="start" x="45.5" y="-52.8" font-family="Helvetica,sans-Serif" font-size="14.00">gini = 0.455</text>
<text text-anchor="start" x="41" y="-37.8" font-family="Helvetica,sans-Serif" font-size="14.00">samples = 20</text>
<text text-anchor="start" x="36.5" y="-22.8" font-family="Helvetica,sans-Serif" font-size="14.00">value = [13, 7]</text>
<text text-anchor="start" x="47.5" y="-7.8" font-family="Helvetica,sans-Serif" font-size="14.00">class = lose</text>
</g>
<!-- 3&#45;&gt;4 -->
<g id="edge4" class="edge">
<title>3&#45;&gt;4</title>
<path fill="none" stroke="black" d="M135.95,-103.73C129.97,-94.88 123.63,-85.51 117.63,-76.63"/>
<polygon fill="black" stroke="black" points="120.5,-74.63 112,-68.3 114.7,-78.54 120.5,-74.63"/>
</g>
<!-- 5 -->
<g id="node6" class="node">
<title>5</title>
<path fill="#7abded" stroke="black" d="M296.5,-68C296.5,-68 180.5,-68 180.5,-68 174.5,-68 168.5,-62 168.5,-56 168.5,-56 168.5,-12 168.5,-12 168.5,-6 174.5,0 180.5,0 180.5,0 296.5,0 296.5,0 302.5,0 308.5,-6 308.5,-12 308.5,-12 308.5,-56 308.5,-56 308.5,-62 302.5,-68 296.5,-68"/>
<text text-anchor="start" x="194.5" y="-52.8" font-family="Helvetica,sans-Serif" font-size="14.00">gini = 0.371</text>
<text text-anchor="start" x="185.5" y="-37.8" font-family="Helvetica,sans-Serif" font-size="14.00">samples = 183</text>
<text text-anchor="start" x="176.5" y="-22.8" font-family="Helvetica,sans-Serif" font-size="14.00">value = [45, 138]</text>
<text text-anchor="start" x="198.5" y="-7.8" font-family="Helvetica,sans-Serif" font-size="14.00">class = win</text>
</g>
<!-- 3&#45;&gt;5 -->
<g id="edge5" class="edge">
<title>3&#45;&gt;5</title>
<path fill="none" stroke="black" d="M191.43,-103.73C197.49,-94.88 203.9,-85.51 209.99,-76.63"/>
<polygon fill="black" stroke="black" points="212.93,-78.53 215.69,-68.3 207.15,-74.57 212.93,-78.53"/>
</g>
<!-- 7 -->
<g id="node8" class="node">
<title>7</title>
<path fill="#e58139" stroke="black" d="M524.5,-68C524.5,-68 426.5,-68 426.5,-68 420.5,-68 414.5,-62 414.5,-56 414.5,-56 414.5,-12 414.5,-12 414.5,-6 420.5,0 426.5,0 426.5,0 524.5,0 524.5,0 530.5,0 536.5,-6 536.5,-12 536.5,-12 536.5,-56 536.5,-56 536.5,-62 530.5,-68 524.5,-68"/>
<text text-anchor="start" x="440.5" y="-52.8" font-family="Helvetica,sans-Serif" font-size="14.00">gini = 0.0</text>
<text text-anchor="start" x="427" y="-37.8" font-family="Helvetica,sans-Serif" font-size="14.00">samples = 10</text>
<text text-anchor="start" x="422.5" y="-22.8" font-family="Helvetica,sans-Serif" font-size="14.00">value = [10, 0]</text>
<text text-anchor="start" x="433.5" y="-7.8" font-family="Helvetica,sans-Serif" font-size="14.00">class = lose</text>
</g>
<!-- 6&#45;&gt;7 -->
<g id="edge7" class="edge">
<title>6&#45;&gt;7</title>
<path fill="none" stroke="black" d="M496.21,-103.73C493.68,-95.34 491.01,-86.47 488.46,-78.01"/>
<polygon fill="black" stroke="black" points="491.77,-76.86 485.54,-68.3 485.07,-78.88 491.77,-76.86"/>
</g>
<!-- 8 -->
<g id="node9" class="node">
<title>8</title>
<path fill="#f3c7a7" stroke="black" d="M656,-68C656,-68 567,-68 567,-68 561,-68 555,-62 555,-56 555,-56 555,-12 555,-12 555,-6 561,0 567,0 567,0 656,0 656,0 662,0 668,-6 668,-12 668,-12 668,-56 668,-56 668,-62 662,-68 656,-68"/>
<text text-anchor="start" x="567.5" y="-52.8" font-family="Helvetica,sans-Serif" font-size="14.00">gini = 0.459</text>
<text text-anchor="start" x="563" y="-37.8" font-family="Helvetica,sans-Serif" font-size="14.00">samples = 14</text>
<text text-anchor="start" x="563" y="-22.8" font-family="Helvetica,sans-Serif" font-size="14.00">value = [9, 5]</text>
<text text-anchor="start" x="569.5" y="-7.8" font-family="Helvetica,sans-Serif" font-size="14.00">class = lose</text>
</g>
<!-- 6&#45;&gt;8 -->
<g id="edge8" class="edge">
<title>6&#45;&gt;8</title>
<path fill="none" stroke="black" d="M546.85,-103.73C555.43,-94.61 564.53,-84.93 573.11,-75.81"/>
<polygon fill="black" stroke="black" points="575.87,-77.98 580.18,-68.3 570.78,-73.19 575.87,-77.98"/>
</g>
<!-- 10 -->
<g id="node11" class="node">
<title>10</title>
<path fill="#43a2e6" stroke="black" d="M1193,-187C1193,-187 702,-187 702,-187 696,-187 690,-181 690,-175 690,-175 690,-116 690,-116 690,-110 696,-104 702,-104 702,-104 1193,-104 1193,-104 1199,-104 1205,-110 1205,-116 1205,-116 1205,-175 1205,-175 1205,-181 1199,-187 1193,-187"/>
<text text-anchor="start" x="698" y="-171.8" font-family="Helvetica,sans-Serif" font-size="14.00">Percent of adults with a bachelor&#39;s degree or higher, 2018&#45;22 ≤ 23.367</text>
<text text-anchor="start" x="903.5" y="-156.8" font-family="Helvetica,sans-Serif" font-size="14.00">gini = 0.094</text>
<text text-anchor="start" x="890" y="-141.8" font-family="Helvetica,sans-Serif" font-size="14.00">samples = 1658</text>
<text text-anchor="start" x="881" y="-126.8" font-family="Helvetica,sans-Serif" font-size="14.00">value = [82, 1576]</text>
<text text-anchor="start" x="907.5" y="-111.8" font-family="Helvetica,sans-Serif" font-size="14.00">class = win</text>
</g>
<!-- 9&#45;&gt;10 -->
<g id="edge10" class="edge">
<title>9&#45;&gt;10</title>
<path fill="none" stroke="black" d="M1155.17,-222.91C1126.81,-212.47 1096.15,-201.19 1067.33,-190.59"/>
<polygon fill="black" stroke="black" points="1068.23,-187.19 1057.63,-187.02 1065.81,-193.76 1068.23,-187.19"/>
</g>
<!-- 13 -->
<g id="node14" class="node">
<title>13</title>
<path fill="#72b9ed" stroke="black" d="M1741.5,-187C1741.5,-187 1235.5,-187 1235.5,-187 1229.5,-187 1223.5,-181 1223.5,-175 1223.5,-175 1223.5,-116 1223.5,-116 1223.5,-110 1229.5,-104 1235.5,-104 1235.5,-104 1741.5,-104 1741.5,-104 1747.5,-104 1753.5,-110 1753.5,-116 1753.5,-116 1753.5,-175 1753.5,-175 1753.5,-181 1747.5,-187 1741.5,-187"/>
<text text-anchor="start" x="1231.5" y="-171.8" font-family="Helvetica,sans-Serif" font-size="14.00">Percent of adults with less than a high school diploma, 2018&#45;22 ≤ 12.829</text>
<text text-anchor="start" x="1444.5" y="-156.8" font-family="Helvetica,sans-Serif" font-size="14.00">gini = 0.349</text>
<text text-anchor="start" x="1435.5" y="-141.8" font-family="Helvetica,sans-Serif" font-size="14.00">samples = 280</text>
<text text-anchor="start" x="1426.5" y="-126.8" font-family="Helvetica,sans-Serif" font-size="14.00">value = [63, 217]</text>
<text text-anchor="start" x="1448.5" y="-111.8" font-family="Helvetica,sans-Serif" font-size="14.00">class = win</text>
</g>
<!-- 9&#45;&gt;13 -->
<g id="edge13" class="edge">
<title>9&#45;&gt;13</title>
<path fill="none" stroke="black" d="M1342.87,-222.91C1362.07,-212.83 1382.76,-201.98 1402.35,-191.7"/>
<polygon fill="black" stroke="black" points="1404.04,-194.77 1411.27,-187.02 1400.79,-188.57 1404.04,-194.77"/>
</g>
<!-- 11 -->
<g id="node12" class="node">
<title>11</title>
<path fill="#40a0e6" stroke="black" d="M879,-68C879,-68 754,-68 754,-68 748,-68 742,-62 742,-56 742,-56 742,-12 742,-12 742,-6 748,0 754,0 754,0 879,0 879,0 885,0 891,-6 891,-12 891,-12 891,-56 891,-56 891,-62 885,-68 879,-68"/>
<text text-anchor="start" x="772.5" y="-52.8" font-family="Helvetica,sans-Serif" font-size="14.00">gini = 0.064</text>
<text text-anchor="start" x="759" y="-37.8" font-family="Helvetica,sans-Serif" font-size="14.00">samples = 1273</text>
<text text-anchor="start" x="750" y="-22.8" font-family="Helvetica,sans-Serif" font-size="14.00">value = [42, 1231]</text>
<text text-anchor="start" x="776.5" y="-7.8" font-family="Helvetica,sans-Serif" font-size="14.00">class = win</text>
</g>
<!-- 10&#45;&gt;11 -->
<g id="edge11" class="edge">
<title>10&#45;&gt;11</title>
<path fill="none" stroke="black" d="M898.72,-103.73C887.37,-94.24 875.31,-84.16 864.01,-74.72"/>
<polygon fill="black" stroke="black" points="866.26,-72.03 856.34,-68.3 861.77,-77.4 866.26,-72.03"/>
</g>
<!-- 12 -->
<g id="node13" class="node">
<title>12</title>
<path fill="#50a8e8" stroke="black" d="M1037.5,-68C1037.5,-68 921.5,-68 921.5,-68 915.5,-68 909.5,-62 909.5,-56 909.5,-56 909.5,-12 909.5,-12 909.5,-6 915.5,0 921.5,0 921.5,0 1037.5,0 1037.5,0 1043.5,0 1049.5,-6 1049.5,-12 1049.5,-12 1049.5,-56 1049.5,-56 1049.5,-62 1043.5,-68 1037.5,-68"/>
<text text-anchor="start" x="935.5" y="-52.8" font-family="Helvetica,sans-Serif" font-size="14.00">gini = 0.186</text>
<text text-anchor="start" x="926.5" y="-37.8" font-family="Helvetica,sans-Serif" font-size="14.00">samples = 385</text>
<text text-anchor="start" x="917.5" y="-22.8" font-family="Helvetica,sans-Serif" font-size="14.00">value = [40, 345]</text>
<text text-anchor="start" x="939.5" y="-7.8" font-family="Helvetica,sans-Serif" font-size="14.00">class = win</text>
</g>
<!-- 10&#45;&gt;12 -->
<g id="edge12" class="edge">
<title>10&#45;&gt;12</title>
<path fill="none" stroke="black" d="M959.42,-103.73C961.87,-95.34 964.46,-86.47 966.93,-78.01"/>
<polygon fill="black" stroke="black" points="970.32,-78.88 969.77,-68.3 963.6,-76.92 970.32,-78.88"/>
</g>
<!-- 14 -->
<g id="node15" class="node">
<title>14</title>
<path fill="#67b4eb" stroke="black" d="M1471.5,-68C1471.5,-68 1355.5,-68 1355.5,-68 1349.5,-68 1343.5,-62 1343.5,-56 1343.5,-56 1343.5,-12 1343.5,-12 1343.5,-6 1349.5,0 1355.5,0 1355.5,0 1471.5,0 1471.5,0 1477.5,0 1483.5,-6 1483.5,-12 1483.5,-12 1483.5,-56 1483.5,-56 1483.5,-62 1477.5,-68 1471.5,-68"/>
<text text-anchor="start" x="1369.5" y="-52.8" font-family="Helvetica,sans-Serif" font-size="14.00">gini = 0.306</text>
<text text-anchor="start" x="1360.5" y="-37.8" font-family="Helvetica,sans-Serif" font-size="14.00">samples = 260</text>
<text text-anchor="start" x="1351.5" y="-22.8" font-family="Helvetica,sans-Serif" font-size="14.00">value = [49, 211]</text>
<text text-anchor="start" x="1373.5" y="-7.8" font-family="Helvetica,sans-Serif" font-size="14.00">class = win</text>
</g>
<!-- 13&#45;&gt;14 -->
<g id="edge14" class="edge">
<title>13&#45;&gt;14</title>
<path fill="none" stroke="black" d="M1460.57,-103.73C1454.51,-94.88 1448.1,-85.51 1442.01,-76.63"/>
<polygon fill="black" stroke="black" points="1444.85,-74.57 1436.31,-68.3 1439.07,-78.53 1444.85,-74.57"/>
</g>
<!-- 15 -->
<g id="node16" class="node">
<title>15</title>
<path fill="#f0b78e" stroke="black" d="M1611.5,-68C1611.5,-68 1513.5,-68 1513.5,-68 1507.5,-68 1501.5,-62 1501.5,-56 1501.5,-56 1501.5,-12 1501.5,-12 1501.5,-6 1507.5,0 1513.5,0 1513.5,0 1611.5,0 1611.5,0 1617.5,0 1623.5,-6 1623.5,-12 1623.5,-12 1623.5,-56 1623.5,-56 1623.5,-62 1617.5,-68 1611.5,-68"/>
<text text-anchor="start" x="1523" y="-52.8" font-family="Helvetica,sans-Serif" font-size="14.00">gini = 0.42</text>
<text text-anchor="start" x="1514" y="-37.8" font-family="Helvetica,sans-Serif" font-size="14.00">samples = 20</text>
<text text-anchor="start" x="1509.5" y="-22.8" font-family="Helvetica,sans-Serif" font-size="14.00">value = [14, 6]</text>
<text text-anchor="start" x="1520.5" y="-7.8" font-family="Helvetica,sans-Serif" font-size="14.00">class = lose</text>
</g>
<!-- 13&#45;&gt;15 -->
<g id="edge15" class="edge">
<title>13&#45;&gt;15</title>
<path fill="none" stroke="black" d="M1516.05,-103.73C1522.03,-94.88 1528.37,-85.51 1534.37,-76.63"/>
<polygon fill="black" stroke="black" points="1537.3,-78.54 1540,-68.3 1531.5,-74.63 1537.3,-78.54"/>
</g>
<!-- 17 -->
<g id="node18" class="node">
<title>17</title>
<path fill="#e7f3fc" stroke="black" d="M2452,-306C2452,-306 1955,-306 1955,-306 1949,-306 1943,-300 1943,-294 1943,-294 1943,-235 1943,-235 1943,-229 1949,-223 1955,-223 1955,-223 2452,-223 2452,-223 2458,-223 2464,-229 2464,-235 2464,-235 2464,-294 2464,-294 2464,-300 2458,-306 2452,-306"/>
<text text-anchor="start" x="1951" y="-290.8" font-family="Helvetica,sans-Serif" font-size="14.00">Percent of adults with less than a high school diploma, 2018&#45;22 ≤ 8.198</text>
<text text-anchor="start" x="2159.5" y="-275.8" font-family="Helvetica,sans-Serif" font-size="14.00">gini = 0.498</text>
<text text-anchor="start" x="2150.5" y="-260.8" font-family="Helvetica,sans-Serif" font-size="14.00">samples = 126</text>
<text text-anchor="start" x="2146" y="-245.8" font-family="Helvetica,sans-Serif" font-size="14.00">value = [59, 67]</text>
<text text-anchor="start" x="2163.5" y="-230.8" font-family="Helvetica,sans-Serif" font-size="14.00">class = win</text>
</g>
<!-- 16&#45;&gt;17 -->
<g id="edge17" class="edge">
<title>16&#45;&gt;17</title>
<path fill="none" stroke="black" d="M2203.5,-341.91C2203.5,-333.65 2203.5,-324.86 2203.5,-316.3"/>
<polygon fill="black" stroke="black" points="2207,-316.02 2203.5,-306.02 2200,-316.02 2207,-316.02"/>
</g>
<!-- 24 -->
<g id="node25" class="node">
<title>24</title>
<path fill="#eca26d" stroke="black" d="M3166,-306C3166,-306 2669,-306 2669,-306 2663,-306 2657,-300 2657,-294 2657,-294 2657,-235 2657,-235 2657,-229 2663,-223 2669,-223 2669,-223 3166,-223 3166,-223 3172,-223 3178,-229 3178,-235 3178,-235 3178,-294 3178,-294 3178,-300 3172,-306 3166,-306"/>
<text text-anchor="start" x="2665" y="-290.8" font-family="Helvetica,sans-Serif" font-size="14.00">Percent of adults with less than a high school diploma, 2018&#45;22 ≤ 6.393</text>
<text text-anchor="start" x="2873.5" y="-275.8" font-family="Helvetica,sans-Serif" font-size="14.00">gini = 0.329</text>
<text text-anchor="start" x="2864.5" y="-260.8" font-family="Helvetica,sans-Serif" font-size="14.00">samples = 188</text>
<text text-anchor="start" x="2855.5" y="-245.8" font-family="Helvetica,sans-Serif" font-size="14.00">value = [149, 39]</text>
<text text-anchor="start" x="2875.5" y="-230.8" font-family="Helvetica,sans-Serif" font-size="14.00">class = lose</text>
</g>
<!-- 16&#45;&gt;24 -->
<g id="edge24" class="edge">
<title>16&#45;&gt;24</title>
<path fill="none" stroke="black" d="M2450.72,-341.99C2518.41,-330.9 2591.93,-318.85 2660.16,-307.67"/>
<polygon fill="black" stroke="black" points="2660.89,-311.1 2670.19,-306.03 2659.76,-304.19 2660.89,-311.1"/>
</g>
<!-- 18 -->
<g id="node19" class="node">
<title>18</title>
<path fill="#aad5f4" stroke="black" d="M2275,-187C2275,-187 1784,-187 1784,-187 1778,-187 1772,-181 1772,-175 1772,-175 1772,-116 1772,-116 1772,-110 1778,-104 1784,-104 1784,-104 2275,-104 2275,-104 2281,-104 2287,-110 2287,-116 2287,-116 2287,-175 2287,-175 2287,-181 2281,-187 2275,-187"/>
<text text-anchor="start" x="1780" y="-171.8" font-family="Helvetica,sans-Serif" font-size="14.00">Percent of adults with a bachelor&#39;s degree or higher, 2018&#45;22 ≤ 35.392</text>
<text text-anchor="start" x="1985.5" y="-156.8" font-family="Helvetica,sans-Serif" font-size="14.00">gini = 0.462</text>
<text text-anchor="start" x="1981" y="-141.8" font-family="Helvetica,sans-Serif" font-size="14.00">samples = 91</text>
<text text-anchor="start" x="1958.5" y="-126.8" font-family="Helvetica,sans-Serif" font-size="14.00">value = [33.0, 58.0]</text>
<text text-anchor="start" x="1989.5" y="-111.8" font-family="Helvetica,sans-Serif" font-size="14.00">class = win</text>
</g>
<!-- 17&#45;&gt;18 -->
<g id="edge18" class="edge">
<title>17&#45;&gt;18</title>
<path fill="none" stroke="black" d="M2143.13,-222.91C2128.69,-213.2 2113.17,-202.76 2098.37,-192.81"/>
<polygon fill="black" stroke="black" points="2100.01,-189.7 2089.76,-187.02 2096.11,-195.51 2100.01,-189.7"/>
</g>
<!-- 21 -->
<g id="node22" class="node">
<title>21</title>
<path fill="#eead7e" stroke="black" d="M2629.5,-187C2629.5,-187 2317.5,-187 2317.5,-187 2311.5,-187 2305.5,-181 2305.5,-175 2305.5,-175 2305.5,-116 2305.5,-116 2305.5,-110 2311.5,-104 2317.5,-104 2317.5,-104 2629.5,-104 2629.5,-104 2635.5,-104 2641.5,-110 2641.5,-116 2641.5,-116 2641.5,-175 2641.5,-175 2641.5,-181 2635.5,-187 2629.5,-187"/>
<text text-anchor="start" x="2313.5" y="-171.8" font-family="Helvetica,sans-Serif" font-size="14.00">Median_Household_Income_2021 ≤ 103404.0</text>
<text text-anchor="start" x="2429.5" y="-156.8" font-family="Helvetica,sans-Serif" font-size="14.00">gini = 0.382</text>
<text text-anchor="start" x="2425" y="-141.8" font-family="Helvetica,sans-Serif" font-size="14.00">samples = 35</text>
<text text-anchor="start" x="2420.5" y="-126.8" font-family="Helvetica,sans-Serif" font-size="14.00">value = [26, 9]</text>
<text text-anchor="start" x="2431.5" y="-111.8" font-family="Helvetica,sans-Serif" font-size="14.00">class = lose</text>
</g>
<!-- 17&#45;&gt;21 -->
<g id="edge21" class="edge">
<title>17&#45;&gt;21</title>
<path fill="none" stroke="black" d="M2297.18,-222.91C2320.94,-212.61 2346.61,-201.49 2370.8,-191"/>
<polygon fill="black" stroke="black" points="2372.21,-194.21 2379.99,-187.02 2369.42,-187.79 2372.21,-194.21"/>
</g>
<!-- 19 -->
<g id="node20" class="node">
<title>19</title>
<path fill="#efb388" stroke="black" d="M2005.5,-68C2005.5,-68 1907.5,-68 1907.5,-68 1901.5,-68 1895.5,-62 1895.5,-56 1895.5,-56 1895.5,-12 1895.5,-12 1895.5,-6 1901.5,0 1907.5,0 1907.5,0 2005.5,0 2005.5,0 2011.5,0 2017.5,-6 2017.5,-12 2017.5,-12 2017.5,-56 2017.5,-56 2017.5,-62 2011.5,-68 2005.5,-68"/>
<text text-anchor="start" x="1912.5" y="-52.8" font-family="Helvetica,sans-Serif" font-size="14.00">gini = 0.408</text>
<text text-anchor="start" x="1908" y="-37.8" font-family="Helvetica,sans-Serif" font-size="14.00">samples = 14</text>
<text text-anchor="start" x="1903.5" y="-22.8" font-family="Helvetica,sans-Serif" font-size="14.00">value = [10, 4]</text>
<text text-anchor="start" x="1914.5" y="-7.8" font-family="Helvetica,sans-Serif" font-size="14.00">class = lose</text>
</g>
<!-- 18&#45;&gt;19 -->
<g id="edge19" class="edge">
<title>18&#45;&gt;19</title>
<path fill="none" stroke="black" d="M2002.32,-103.73C1996.42,-94.88 1990.17,-85.51 1984.25,-76.63"/>
<polygon fill="black" stroke="black" points="1987.16,-74.68 1978.7,-68.3 1981.33,-78.56 1987.16,-74.68"/>
</g>
<!-- 20 -->
<g id="node21" class="node">
<title>20</title>
<path fill="#8dc7f0" stroke="black" d="M2155,-68C2155,-68 2048,-68 2048,-68 2042,-68 2036,-62 2036,-56 2036,-56 2036,-12 2036,-12 2036,-6 2042,0 2048,0 2048,0 2155,0 2155,0 2161,0 2167,-6 2167,-12 2167,-12 2167,-56 2167,-56 2167,-62 2161,-68 2155,-68"/>
<text text-anchor="start" x="2057.5" y="-52.8" font-family="Helvetica,sans-Serif" font-size="14.00">gini = 0.419</text>
<text text-anchor="start" x="2053" y="-37.8" font-family="Helvetica,sans-Serif" font-size="14.00">samples = 77</text>
<text text-anchor="start" x="2044" y="-22.8" font-family="Helvetica,sans-Serif" font-size="14.00">value = [23, 54]</text>
<text text-anchor="start" x="2061.5" y="-7.8" font-family="Helvetica,sans-Serif" font-size="14.00">class = win</text>
</g>
<!-- 18&#45;&gt;20 -->
<g id="edge20" class="edge">
<title>18&#45;&gt;20</title>
<path fill="none" stroke="black" d="M2056.31,-103.73C2062.07,-94.97 2068.16,-85.7 2073.95,-76.91"/>
<polygon fill="black" stroke="black" points="2077.03,-78.58 2079.6,-68.3 2071.19,-74.73 2077.03,-78.58"/>
</g>
<!-- 22 -->
<g id="node23" class="node">
<title>22</title>
<path fill="#eca36e" stroke="black" d="M2454.5,-68C2454.5,-68 2356.5,-68 2356.5,-68 2350.5,-68 2344.5,-62 2344.5,-56 2344.5,-56 2344.5,-12 2344.5,-12 2344.5,-6 2350.5,0 2356.5,0 2356.5,0 2454.5,0 2454.5,0 2460.5,0 2466.5,-6 2466.5,-12 2466.5,-12 2466.5,-56 2466.5,-56 2466.5,-62 2460.5,-68 2454.5,-68"/>
<text text-anchor="start" x="2361.5" y="-52.8" font-family="Helvetica,sans-Serif" font-size="14.00">gini = 0.334</text>
<text text-anchor="start" x="2357" y="-37.8" font-family="Helvetica,sans-Serif" font-size="14.00">samples = 33</text>
<text text-anchor="start" x="2352.5" y="-22.8" font-family="Helvetica,sans-Serif" font-size="14.00">value = [26, 7]</text>
<text text-anchor="start" x="2363.5" y="-7.8" font-family="Helvetica,sans-Serif" font-size="14.00">class = lose</text>
</g>
<!-- 21&#45;&gt;22 -->
<g id="edge22" class="edge">
<title>21&#45;&gt;22</title>
<path fill="none" stroke="black" d="M2448.18,-103.73C2442.74,-94.97 2436.99,-85.7 2431.52,-76.91"/>
<polygon fill="black" stroke="black" points="2434.43,-74.95 2426.18,-68.3 2428.48,-78.64 2434.43,-74.95"/>
</g>
<!-- 23 -->
<g id="node24" class="node">
<title>23</title>
<path fill="#399de5" stroke="black" d="M2586,-68C2586,-68 2497,-68 2497,-68 2491,-68 2485,-62 2485,-56 2485,-56 2485,-12 2485,-12 2485,-6 2491,0 2497,0 2497,0 2586,0 2586,0 2592,0 2598,-6 2598,-12 2598,-12 2598,-56 2598,-56 2598,-62 2592,-68 2586,-68"/>
<text text-anchor="start" x="2506.5" y="-52.8" font-family="Helvetica,sans-Serif" font-size="14.00">gini = 0.0</text>
<text text-anchor="start" x="2497.5" y="-37.8" font-family="Helvetica,sans-Serif" font-size="14.00">samples = 2</text>
<text text-anchor="start" x="2493" y="-22.8" font-family="Helvetica,sans-Serif" font-size="14.00">value = [0, 2]</text>
<text text-anchor="start" x="2501.5" y="-7.8" font-family="Helvetica,sans-Serif" font-size="14.00">class = win</text>
</g>
<!-- 21&#45;&gt;23 -->
<g id="edge23" class="edge">
<title>21&#45;&gt;23</title>
<path fill="none" stroke="black" d="M2498.82,-103.73C2504.26,-94.97 2510.01,-85.7 2515.48,-76.91"/>
<polygon fill="black" stroke="black" points="2518.52,-78.64 2520.82,-68.3 2512.57,-74.95 2518.52,-78.64"/>
</g>
<!-- 25 -->
<g id="node26" class="node">
<title>25</title>
<path fill="#f0b68c" stroke="black" d="M3163,-187C3163,-187 2672,-187 2672,-187 2666,-187 2660,-181 2660,-175 2660,-175 2660,-116 2660,-116 2660,-110 2666,-104 2672,-104 2672,-104 3163,-104 3163,-104 3169,-104 3175,-110 3175,-116 3175,-116 3175,-175 3175,-175 3175,-181 3169,-187 3163,-187"/>
<text text-anchor="start" x="2668" y="-171.8" font-family="Helvetica,sans-Serif" font-size="14.00">Percent of adults with a bachelor&#39;s degree or higher, 2018&#45;22 ≤ 49.955</text>
<text text-anchor="start" x="2873.5" y="-156.8" font-family="Helvetica,sans-Serif" font-size="14.00">gini = 0.417</text>
<text text-anchor="start" x="2864.5" y="-141.8" font-family="Helvetica,sans-Serif" font-size="14.00">samples = 108</text>
<text text-anchor="start" x="2860" y="-126.8" font-family="Helvetica,sans-Serif" font-size="14.00">value = [76, 32]</text>
<text text-anchor="start" x="2875.5" y="-111.8" font-family="Helvetica,sans-Serif" font-size="14.00">class = lose</text>
</g>
<!-- 24&#45;&gt;25 -->
<g id="edge25" class="edge">
<title>24&#45;&gt;25</title>
<path fill="none" stroke="black" d="M2917.5,-222.91C2917.5,-214.65 2917.5,-205.86 2917.5,-197.3"/>
<polygon fill="black" stroke="black" points="2921,-197.02 2917.5,-187.02 2914,-197.02 2921,-197.02"/>
</g>
<!-- 28 -->
<g id="node29" class="node">
<title>28</title>
<path fill="#e78d4c" stroke="black" d="M3508,-187C3508,-187 3205,-187 3205,-187 3199,-187 3193,-181 3193,-175 3193,-175 3193,-116 3193,-116 3193,-110 3199,-104 3205,-104 3205,-104 3508,-104 3508,-104 3514,-104 3520,-110 3520,-116 3520,-116 3520,-175 3520,-175 3520,-181 3514,-187 3508,-187"/>
<text text-anchor="start" x="3201" y="-171.8" font-family="Helvetica,sans-Serif" font-size="14.00">Median_Household_Income_2021 ≤ 53805.5</text>
<text text-anchor="start" x="3317" y="-156.8" font-family="Helvetica,sans-Serif" font-size="14.00">gini = 0.16</text>
<text text-anchor="start" x="3308" y="-141.8" font-family="Helvetica,sans-Serif" font-size="14.00">samples = 80</text>
<text text-anchor="start" x="3303.5" y="-126.8" font-family="Helvetica,sans-Serif" font-size="14.00">value = [73, 7]</text>
<text text-anchor="start" x="3314.5" y="-111.8" font-family="Helvetica,sans-Serif" font-size="14.00">class = lose</text>
</g>
<!-- 24&#45;&gt;28 -->
<g id="edge28" class="edge">
<title>24&#45;&gt;28</title>
<path fill="none" stroke="black" d="M3069.5,-222.99C3109.87,-212.23 3153.61,-200.57 3194.49,-189.68"/>
<polygon fill="black" stroke="black" points="3195.5,-193.03 3204.26,-187.07 3193.69,-186.27 3195.5,-193.03"/>
</g>
<!-- 26 -->
<g id="node27" class="node">
<title>26</title>
<path fill="#f8dfcc" stroke="black" d="M2892,-68C2892,-68 2785,-68 2785,-68 2779,-68 2773,-62 2773,-56 2773,-56 2773,-12 2773,-12 2773,-6 2779,0 2785,0 2785,0 2892,0 2892,0 2898,0 2904,-6 2904,-12 2904,-12 2904,-56 2904,-56 2904,-62 2898,-68 2892,-68"/>
<text text-anchor="start" x="2794.5" y="-52.8" font-family="Helvetica,sans-Serif" font-size="14.00">gini = 0.489</text>
<text text-anchor="start" x="2790" y="-37.8" font-family="Helvetica,sans-Serif" font-size="14.00">samples = 61</text>
<text text-anchor="start" x="2781" y="-22.8" font-family="Helvetica,sans-Serif" font-size="14.00">value = [35, 26]</text>
<text text-anchor="start" x="2796.5" y="-7.8" font-family="Helvetica,sans-Serif" font-size="14.00">class = lose</text>
</g>
<!-- 25&#45;&gt;26 -->
<g id="edge26" class="edge">
<title>25&#45;&gt;26</title>
<path fill="none" stroke="black" d="M2888.08,-103.73C2881.7,-94.88 2874.94,-85.51 2868.53,-76.63"/>
<polygon fill="black" stroke="black" points="2871.21,-74.36 2862.52,-68.3 2865.54,-78.46 2871.21,-74.36"/>
</g>
<!-- 27 -->
<g id="node28" class="node">
<title>27</title>
<path fill="#e99356" stroke="black" d="M3059,-68C3059,-68 2934,-68 2934,-68 2928,-68 2922,-62 2922,-56 2922,-56 2922,-12 2922,-12 2922,-6 2928,0 2934,0 2934,0 3059,0 3059,0 3065,0 3071,-6 3071,-12 3071,-12 3071,-56 3071,-56 3071,-62 3065,-68 3059,-68"/>
<text text-anchor="start" x="2952.5" y="-52.8" font-family="Helvetica,sans-Serif" font-size="14.00">gini = 0.223</text>
<text text-anchor="start" x="2948" y="-37.8" font-family="Helvetica,sans-Serif" font-size="14.00">samples = 47</text>
<text text-anchor="start" x="2930" y="-22.8" font-family="Helvetica,sans-Serif" font-size="14.00">value = [41.0, 6.0]</text>
<text text-anchor="start" x="2954.5" y="-7.8" font-family="Helvetica,sans-Serif" font-size="14.00">class = lose</text>
</g>
<!-- 25&#45;&gt;27 -->
<g id="edge27" class="edge">
<title>25&#45;&gt;27</title>
<path fill="none" stroke="black" d="M2946.92,-103.73C2953.3,-94.88 2960.06,-85.51 2966.47,-76.63"/>
<polygon fill="black" stroke="black" points="2969.46,-78.46 2972.48,-68.3 2963.79,-74.36 2969.46,-78.46"/>
</g>
<!-- 29 -->
<g id="node30" class="node">
<title>29</title>
<path fill="#f6d5bd" stroke="black" d="M3333,-68C3333,-68 3244,-68 3244,-68 3238,-68 3232,-62 3232,-56 3232,-56 3232,-12 3232,-12 3232,-6 3238,0 3244,0 3244,0 3333,0 3333,0 3339,0 3345,-6 3345,-12 3345,-12 3345,-56 3345,-56 3345,-62 3339,-68 3333,-68"/>
<text text-anchor="start" x="3249" y="-52.8" font-family="Helvetica,sans-Serif" font-size="14.00">gini = 0.48</text>
<text text-anchor="start" x="3244.5" y="-37.8" font-family="Helvetica,sans-Serif" font-size="14.00">samples = 5</text>
<text text-anchor="start" x="3240" y="-22.8" font-family="Helvetica,sans-Serif" font-size="14.00">value = [3, 2]</text>
<text text-anchor="start" x="3246.5" y="-7.8" font-family="Helvetica,sans-Serif" font-size="14.00">class = lose</text>
</g>
<!-- 28&#45;&gt;29 -->
<g id="edge29" class="edge">
<title>28&#45;&gt;29</title>
<path fill="none" stroke="black" d="M3331.18,-103.73C3325.74,-94.97 3319.99,-85.7 3314.52,-76.91"/>
<polygon fill="black" stroke="black" points="3317.43,-74.95 3309.18,-68.3 3311.48,-78.64 3317.43,-74.95"/>
</g>
<!-- 30 -->
<g id="node31" class="node">
<title>30</title>
<path fill="#e78a47" stroke="black" d="M3473.5,-68C3473.5,-68 3375.5,-68 3375.5,-68 3369.5,-68 3363.5,-62 3363.5,-56 3363.5,-56 3363.5,-12 3363.5,-12 3363.5,-6 3369.5,0 3375.5,0 3375.5,0 3473.5,0 3473.5,0 3479.5,0 3485.5,-6 3485.5,-12 3485.5,-12 3485.5,-56 3485.5,-56 3485.5,-62 3479.5,-68 3473.5,-68"/>
<text text-anchor="start" x="3380.5" y="-52.8" font-family="Helvetica,sans-Serif" font-size="14.00">gini = 0.124</text>
<text text-anchor="start" x="3376" y="-37.8" font-family="Helvetica,sans-Serif" font-size="14.00">samples = 75</text>
<text text-anchor="start" x="3371.5" y="-22.8" font-family="Helvetica,sans-Serif" font-size="14.00">value = [70, 5]</text>
<text text-anchor="start" x="3382.5" y="-7.8" font-family="Helvetica,sans-Serif" font-size="14.00">class = lose</text>
</g>
<!-- 28&#45;&gt;30 -->
<g id="edge30" class="edge">
<title>28&#45;&gt;30</title>
<path fill="none" stroke="black" d="M3381.82,-103.73C3387.26,-94.97 3393.01,-85.7 3398.48,-76.91"/>
<polygon fill="black" stroke="black" points="3401.52,-78.64 3403.82,-68.3 3395.57,-74.95 3401.52,-78.64"/>
</g>
</g>
</svg>
