<?xml version="1.0" encoding="UTF-8" standalone="no"?>
<!DOCTYPE svg PUBLIC "-//W3C//DTD SVG 1.1//EN"
 "http://www.w3.org/Graphics/SVG/1.1/DTD/svg11.dtd">
<!-- Generated by graphviz version 2.43.0 (0)
 -->
<!-- Title: Tree Pages: 1 -->
<svg width="1946pt" height="433pt"
 viewBox="0.00 0.00 1946.00 433.00" xmlns="http://www.w3.org/2000/svg" xmlns:xlink="http://www.w3.org/1999/xlink">
<g id="graph0" class="graph" transform="scale(1 1) rotate(0) translate(4 429)">
<title>Tree</title>
<polygon fill="white" stroke="transparent" points="-4,4 -4,-429 1942,-429 1942,4 -4,4"/>
<!-- 0 -->
<g id="node1" class="node">
<title>0</title>
<path fill="#62b1ea" stroke="black" d="M1163,-425C1163,-425 672,-425 672,-425 666,-425 660,-419 660,-413 660,-413 660,-354 660,-354 660,-348 666,-342 672,-342 672,-342 1163,-342 1163,-342 1169,-342 1175,-348 1175,-354 1175,-354 1175,-413 1175,-413 1175,-419 1169,-425 1163,-425"/>
<text text-anchor="start" x="668" y="-409.8" font-family="Helvetica,sans-Serif" font-size="14.00">Percent of adults with a bachelor&#39;s degree or higher, 2018&#45;22 ≤ 32.952</text>
<text text-anchor="start" x="873.5" y="-394.8" font-family="Helvetica,sans-Serif" font-size="14.00">gini = 0.283</text>
<text text-anchor="start" x="860" y="-379.8" font-family="Helvetica,sans-Serif" font-size="14.00">samples = 3100</text>
<text text-anchor="start" x="846.5" y="-364.8" font-family="Helvetica,sans-Serif" font-size="14.00">value = [528, 2572]</text>
<text text-anchor="start" x="877.5" y="-349.8" font-family="Helvetica,sans-Serif" font-size="14.00">class = win</text>
</g>
<!-- 1 -->
<g id="node2" class="node">
<title>1</title>
<path fill="#4da7e8" stroke="black" d="M848,-306C848,-306 545,-306 545,-306 539,-306 533,-300 533,-294 533,-294 533,-235 533,-235 533,-229 539,-223 545,-223 545,-223 848,-223 848,-223 854,-223 860,-229 860,-235 860,-235 860,-294 860,-294 860,-300 854,-306 848,-306"/>
<text text-anchor="start" x="541" y="-290.8" font-family="Helvetica,sans-Serif" font-size="14.00">Median_Household_Income_2021 ≤ 37656.0</text>
<text text-anchor="start" x="652.5" y="-275.8" font-family="Helvetica,sans-Serif" font-size="14.00">gini = 0.169</text>
<text text-anchor="start" x="639" y="-260.8" font-family="Helvetica,sans-Serif" font-size="14.00">samples = 2629</text>
<text text-anchor="start" x="612" y="-245.8" font-family="Helvetica,sans-Serif" font-size="14.00">value = [245.0, 2384.0]</text>
<text text-anchor="start" x="656.5" y="-230.8" font-family="Helvetica,sans-Serif" font-size="14.00">class = win</text>
</g>
<!-- 0&#45;&gt;1 -->
<g id="edge1" class="edge">
<title>0&#45;&gt;1</title>
<path fill="none" stroke="black" d="M840.83,-341.91C821.88,-331.88 801.47,-321.07 782.14,-310.84"/>
<polygon fill="black" stroke="black" points="783.51,-307.61 773.04,-306.02 780.24,-313.79 783.51,-307.61"/>
<text text-anchor="middle" x="780.39" y="-326.22" font-family="Helvetica,sans-Serif" font-size="14.00">True</text>
</g>
<!-- 8 -->
<g id="node9" class="node">
<title>8</title>
<path fill="#f6d5bd" stroke="black" d="M1384,-306C1384,-306 893,-306 893,-306 887,-306 881,-300 881,-294 881,-294 881,-235 881,-235 881,-229 887,-223 893,-223 893,-223 1384,-223 1384,-223 1390,-223 1396,-229 1396,-235 1396,-235 1396,-294 1396,-294 1396,-300 1390,-306 1384,-306"/>
<text text-anchor="start" x="889" y="-290.8" font-family="Helvetica,sans-Serif" font-size="14.00">Percent of adults with a bachelor&#39;s degree or higher, 2018&#45;22 ≤ 40.197</text>
<text text-anchor="start" x="1099" y="-275.8" font-family="Helvetica,sans-Serif" font-size="14.00">gini = 0.48</text>
<text text-anchor="start" x="1085.5" y="-260.8" font-family="Helvetica,sans-Serif" font-size="14.00">samples = 471</text>
<text text-anchor="start" x="1072" y="-245.8" font-family="Helvetica,sans-Serif" font-size="14.00">value = [283, 188]</text>
<text text-anchor="start" x="1096.5" y="-230.8" font-family="Helvetica,sans-Serif" font-size="14.00">class = lose</text>
</g>
<!-- 0&#45;&gt;8 -->
<g id="edge8" class="edge">
<title>0&#45;&gt;8</title>
<path fill="none" stroke="black" d="M994.17,-341.91C1013.12,-331.88 1033.53,-321.07 1052.86,-310.84"/>
<polygon fill="black" stroke="black" points="1054.76,-313.79 1061.96,-306.02 1051.49,-307.61 1054.76,-313.79"/>
<text text-anchor="middle" x="1054.61" y="-326.22" font-family="Helvetica,sans-Serif" font-size="14.00">False</text>
</g>
<!-- 2 -->
<g id="node3" class="node">
<title>2</title>
<path fill="#fefaf7" stroke="black" d="M503,-187C503,-187 12,-187 12,-187 6,-187 0,-181 0,-175 0,-175 0,-116 0,-116 0,-110 6,-104 12,-104 12,-104 503,-104 503,-104 509,-104 515,-110 515,-116 515,-116 515,-175 515,-175 515,-181 509,-187 503,-187"/>
<text text-anchor="start" x="8" y="-171.8" font-family="Helvetica,sans-Serif" font-size="14.00">Percent of adults with a bachelor&#39;s degree or higher, 2018&#45;22 ≤ 18.909</text>
<text text-anchor="start" x="222.5" y="-156.8" font-family="Helvetica,sans-Serif" font-size="14.00">gini = 0.5</text>
<text text-anchor="start" x="204.5" y="-141.8" font-family="Helvetica,sans-Serif" font-size="14.00">samples = 100</text>
<text text-anchor="start" x="200" y="-126.8" font-family="Helvetica,sans-Serif" font-size="14.00">value = [51, 49]</text>
<text text-anchor="start" x="215.5" y="-111.8" font-family="Helvetica,sans-Serif" font-size="14.00">class = lose</text>
</g>
<!-- 1&#45;&gt;2 -->
<g id="edge2" class="edge">
<title>1&#45;&gt;2</title>
<path fill="none" stroke="black" d="M544.5,-222.99C504.13,-212.23 460.39,-200.57 419.51,-189.68"/>
<polygon fill="black" stroke="black" points="420.31,-186.27 409.74,-187.07 418.5,-193.03 420.31,-186.27"/>
</g>
<!-- 5 -->
<g id="node6" class="node">
<title>5</title>
<path fill="#49a5e7" stroke="black" d="M848,-187C848,-187 545,-187 545,-187 539,-187 533,-181 533,-175 533,-175 533,-116 533,-116 533,-110 539,-104 545,-104 545,-104 848,-104 848,-104 854,-104 860,-110 860,-116 860,-116 860,-175 860,-175 860,-181 854,-187 848,-187"/>
<text text-anchor="start" x="541" y="-171.8" font-family="Helvetica,sans-Serif" font-size="14.00">Median_Household_Income_2021 ≤ 42102.0</text>
<text text-anchor="start" x="652.5" y="-156.8" font-family="Helvetica,sans-Serif" font-size="14.00">gini = 0.142</text>
<text text-anchor="start" x="639" y="-141.8" font-family="Helvetica,sans-Serif" font-size="14.00">samples = 2529</text>
<text text-anchor="start" x="612" y="-126.8" font-family="Helvetica,sans-Serif" font-size="14.00">value = [194.0, 2335.0]</text>
<text text-anchor="start" x="656.5" y="-111.8" font-family="Helvetica,sans-Serif" font-size="14.00">class = win</text>
</g>
<!-- 1&#45;&gt;5 -->
<g id="edge5" class="edge">
<title>1&#45;&gt;5</title>
<path fill="none" stroke="black" d="M696.5,-222.91C696.5,-214.65 696.5,-205.86 696.5,-197.3"/>
<polygon fill="black" stroke="black" points="700,-197.02 696.5,-187.02 693,-197.02 700,-197.02"/>
</g>
<!-- 3 -->
<g id="node4" class="node">
<title>3</title>
<path fill="#e3f1fb" stroke="black" d="M241,-68C241,-68 134,-68 134,-68 128,-68 122,-62 122,-56 122,-56 122,-12 122,-12 122,-6 128,0 134,0 134,0 241,0 241,0 247,0 253,-6 253,-12 253,-12 253,-56 253,-56 253,-62 247,-68 241,-68"/>
<text text-anchor="start" x="143.5" y="-52.8" font-family="Helvetica,sans-Serif" font-size="14.00">gini = 0.497</text>
<text text-anchor="start" x="139" y="-37.8" font-family="Helvetica,sans-Serif" font-size="14.00">samples = 91</text>
<text text-anchor="start" x="130" y="-22.8" font-family="Helvetica,sans-Serif" font-size="14.00">value = [42, 49]</text>
<text text-anchor="start" x="147.5" y="-7.8" font-family="Helvetica,sans-Serif" font-size="14.00">class = win</text>
</g>
<!-- 2&#45;&gt;3 -->
<g id="edge3" class="edge">
<title>2&#45;&gt;3</title>
<path fill="none" stroke="black" d="M231.43,-103.73C225.84,-94.97 219.91,-85.7 214.29,-76.91"/>
<polygon fill="black" stroke="black" points="217.12,-74.84 208.79,-68.3 211.22,-78.61 217.12,-74.84"/>
</g>
<!-- 4 -->
<g id="node5" class="node">
<title>4</title>
<path fill="#e58139" stroke="black" d="M372,-68C372,-68 283,-68 283,-68 277,-68 271,-62 271,-56 271,-56 271,-12 271,-12 271,-6 277,0 283,0 283,0 372,0 372,0 378,0 384,-6 384,-12 384,-12 384,-56 384,-56 384,-62 378,-68 372,-68"/>
<text text-anchor="start" x="292.5" y="-52.8" font-family="Helvetica,sans-Serif" font-size="14.00">gini = 0.0</text>
<text text-anchor="start" x="283.5" y="-37.8" font-family="Helvetica,sans-Serif" font-size="14.00">samples = 9</text>
<text text-anchor="start" x="279" y="-22.8" font-family="Helvetica,sans-Serif" font-size="14.00">value = [9, 0]</text>
<text text-anchor="start" x="285.5" y="-7.8" font-family="Helvetica,sans-Serif" font-size="14.00">class = lose</text>
</g>
<!-- 2&#45;&gt;4 -->
<g id="edge4" class="edge">
<title>2&#45;&gt;4</title>
<path fill="none" stroke="black" d="M283.57,-103.73C289.16,-94.97 295.09,-85.7 300.71,-76.91"/>
<polygon fill="black" stroke="black" points="303.78,-78.61 306.21,-68.3 297.88,-74.84 303.78,-78.61"/>
</g>
<!-- 6 -->
<g id="node7" class="node">
<title>6</title>
<path fill="#74baed" stroke="black" d="M684.5,-68C684.5,-68 568.5,-68 568.5,-68 562.5,-68 556.5,-62 556.5,-56 556.5,-56 556.5,-12 556.5,-12 556.5,-6 562.5,0 568.5,0 568.5,0 684.5,0 684.5,0 690.5,0 696.5,-6 696.5,-12 696.5,-12 696.5,-56 696.5,-56 696.5,-62 690.5,-68 684.5,-68"/>
<text text-anchor="start" x="582.5" y="-52.8" font-family="Helvetica,sans-Serif" font-size="14.00">gini = 0.352</text>
<text text-anchor="start" x="573.5" y="-37.8" font-family="Helvetica,sans-Serif" font-size="14.00">samples = 184</text>
<text text-anchor="start" x="564.5" y="-22.8" font-family="Helvetica,sans-Serif" font-size="14.00">value = [42, 142]</text>
<text text-anchor="start" x="586.5" y="-7.8" font-family="Helvetica,sans-Serif" font-size="14.00">class = win</text>
</g>
<!-- 5&#45;&gt;6 -->
<g id="edge6" class="edge">
<title>5&#45;&gt;6</title>
<path fill="none" stroke="black" d="M670.43,-103.73C664.84,-94.97 658.91,-85.7 653.29,-76.91"/>
<polygon fill="black" stroke="black" points="656.12,-74.84 647.79,-68.3 650.22,-78.61 656.12,-74.84"/>
</g>
<!-- 7 -->
<g id="node8" class="node">
<title>7</title>
<path fill="#47a4e7" stroke="black" d="M888,-68C888,-68 727,-68 727,-68 721,-68 715,-62 715,-56 715,-56 715,-12 715,-12 715,-6 721,0 727,0 727,0 888,0 888,0 894,0 900,-6 900,-12 900,-12 900,-56 900,-56 900,-62 894,-68 888,-68"/>
<text text-anchor="start" x="763.5" y="-52.8" font-family="Helvetica,sans-Serif" font-size="14.00">gini = 0.121</text>
<text text-anchor="start" x="750" y="-37.8" font-family="Helvetica,sans-Serif" font-size="14.00">samples = 2345</text>
<text text-anchor="start" x="723" y="-22.8" font-family="Helvetica,sans-Serif" font-size="14.00">value = [152.0, 2193.0]</text>
<text text-anchor="start" x="767.5" y="-7.8" font-family="Helvetica,sans-Serif" font-size="14.00">class = win</text>
</g>
<!-- 5&#45;&gt;7 -->
<g id="edge7" class="edge">
<title>5&#45;&gt;7</title>
<path fill="none" stroke="black" d="M737.83,-103.73C747.17,-94.51 757.08,-84.74 766.41,-75.53"/>
<polygon fill="black" stroke="black" points="769.08,-77.81 773.74,-68.3 764.17,-72.83 769.08,-77.81"/>
</g>
<!-- 9 -->
<g id="node10" class="node">
<title>9</title>
<path fill="#dbedfa" stroke="black" d="M1387,-187C1387,-187 890,-187 890,-187 884,-187 878,-181 878,-175 878,-175 878,-116 878,-116 878,-110 884,-104 890,-104 890,-104 1387,-104 1387,-104 1393,-104 1399,-110 1399,-116 1399,-116 1399,-175 1399,-175 1399,-181 1393,-187 1387,-187"/>
<text text-anchor="start" x="886" y="-171.8" font-family="Helvetica,sans-Serif" font-size="14.00">Percent of adults with less than a high school diploma, 2018&#45;22 ≤ 10.48</text>
<text text-anchor="start" x="1094.5" y="-156.8" font-family="Helvetica,sans-Serif" font-size="14.00">gini = 0.495</text>
<text text-anchor="start" x="1085.5" y="-141.8" font-family="Helvetica,sans-Serif" font-size="14.00">samples = 249</text>
<text text-anchor="start" x="1072" y="-126.8" font-family="Helvetica,sans-Serif" font-size="14.00">value = [112, 137]</text>
<text text-anchor="start" x="1098.5" y="-111.8" font-family="Helvetica,sans-Serif" font-size="14.00">class = win</text>
</g>
<!-- 8&#45;&gt;9 -->
<g id="edge9" class="edge">
<title>8&#45;&gt;9</title>
<path fill="none" stroke="black" d="M1138.5,-222.91C1138.5,-214.65 1138.5,-205.86 1138.5,-197.3"/>
<polygon fill="black" stroke="black" points="1142,-197.02 1138.5,-187.02 1135,-197.02 1142,-197.02"/>
</g>
<!-- 12 -->
<g id="node13" class="node">
<title>12</title>
<path fill="#eda774" stroke="black" d="M1926,-187C1926,-187 1429,-187 1429,-187 1423,-187 1417,-181 1417,-175 1417,-175 1417,-116 1417,-116 1417,-110 1423,-104 1429,-104 1429,-104 1926,-104 1926,-104 1932,-104 1938,-110 1938,-116 1938,-116 1938,-175 1938,-175 1938,-181 1932,-187 1926,-187"/>
<text text-anchor="start" x="1425" y="-171.8" font-family="Helvetica,sans-Serif" font-size="14.00">Percent of adults with less than a high school diploma, 2018&#45;22 ≤ 6.393</text>
<text text-anchor="start" x="1633.5" y="-156.8" font-family="Helvetica,sans-Serif" font-size="14.00">gini = 0.354</text>
<text text-anchor="start" x="1624.5" y="-141.8" font-family="Helvetica,sans-Serif" font-size="14.00">samples = 222</text>
<text text-anchor="start" x="1615.5" y="-126.8" font-family="Helvetica,sans-Serif" font-size="14.00">value = [171, 51]</text>
<text text-anchor="start" x="1635.5" y="-111.8" font-family="Helvetica,sans-Serif" font-size="14.00">class = lose</text>
</g>
<!-- 8&#45;&gt;12 -->
<g id="edge12" class="edge">
<title>8&#45;&gt;12</title>
<path fill="none" stroke="black" d="M1325.13,-222.99C1375.42,-212.07 1429.98,-200.23 1480.8,-189.2"/>
<polygon fill="black" stroke="black" points="1481.55,-192.62 1490.58,-187.07 1480.06,-185.78 1481.55,-192.62"/>
</g>
<!-- 10 -->
<g id="node11" class="node">
<title>10</title>
<path fill="#b9dcf6" stroke="black" d="M1113,-68C1113,-68 970,-68 970,-68 964,-68 958,-62 958,-56 958,-56 958,-12 958,-12 958,-6 964,0 970,0 970,0 1113,0 1113,0 1119,0 1125,-6 1125,-12 1125,-12 1125,-56 1125,-56 1125,-62 1119,-68 1113,-68"/>
<text text-anchor="start" x="997.5" y="-52.8" font-family="Helvetica,sans-Serif" font-size="14.00">gini = 0.477</text>
<text text-anchor="start" x="988.5" y="-37.8" font-family="Helvetica,sans-Serif" font-size="14.00">samples = 209</text>
<text text-anchor="start" x="966" y="-22.8" font-family="Helvetica,sans-Serif" font-size="14.00">value = [82.0, 127.0]</text>
<text text-anchor="start" x="1001.5" y="-7.8" font-family="Helvetica,sans-Serif" font-size="14.00">class = win</text>
</g>
<!-- 9&#45;&gt;10 -->
<g id="edge10" class="edge">
<title>9&#45;&gt;10</title>
<path fill="none" stroke="black" d="M1102.38,-103.73C1094.3,-94.61 1085.73,-84.93 1077.65,-75.81"/>
<polygon fill="black" stroke="black" points="1080.25,-73.46 1071,-68.3 1075.01,-78.11 1080.25,-73.46"/>
</g>
<!-- 11 -->
<g id="node12" class="node">
<title>11</title>
<path fill="#eeab7b" stroke="black" d="M1262,-68C1262,-68 1155,-68 1155,-68 1149,-68 1143,-62 1143,-56 1143,-56 1143,-12 1143,-12 1143,-6 1149,0 1155,0 1155,0 1262,0 1262,0 1268,0 1274,-6 1274,-12 1274,-12 1274,-56 1274,-56 1274,-62 1268,-68 1262,-68"/>
<text text-anchor="start" x="1164.5" y="-52.8" font-family="Helvetica,sans-Serif" font-size="14.00">gini = 0.375</text>
<text text-anchor="start" x="1160" y="-37.8" font-family="Helvetica,sans-Serif" font-size="14.00">samples = 40</text>
<text text-anchor="start" x="1151" y="-22.8" font-family="Helvetica,sans-Serif" font-size="14.00">value = [30, 10]</text>
<text text-anchor="start" x="1166.5" y="-7.8" font-family="Helvetica,sans-Serif" font-size="14.00">class = lose</text>
</g>
<!-- 9&#45;&gt;11 -->
<g id="edge11" class="edge">
<title>9&#45;&gt;11</title>
<path fill="none" stroke="black" d="M1164.57,-103.73C1170.16,-94.97 1176.09,-85.7 1181.71,-76.91"/>
<polygon fill="black" stroke="black" points="1184.78,-78.61 1187.21,-68.3 1178.88,-74.84 1184.78,-78.61"/>
</g>
<!-- 13 -->
<g id="node14" class="node">
<title>13</title>
<path fill="#f2bf9a" stroke="black" d="M1658,-68C1658,-68 1551,-68 1551,-68 1545,-68 1539,-62 1539,-56 1539,-56 1539,-12 1539,-12 1539,-6 1545,0 1551,0 1551,0 1658,0 1658,0 1664,0 1670,-6 1670,-12 1670,-12 1670,-56 1670,-56 1670,-62 1664,-68 1658,-68"/>
<text text-anchor="start" x="1560.5" y="-52.8" font-family="Helvetica,sans-Serif" font-size="14.00">gini = 0.441</text>
<text text-anchor="start" x="1551.5" y="-37.8" font-family="Helvetica,sans-Serif" font-size="14.00">samples = 128</text>
<text text-anchor="start" x="1547" y="-22.8" font-family="Helvetica,sans-Serif" font-size="14.00">value = [86, 42]</text>
<text text-anchor="start" x="1562.5" y="-7.8" font-family="Helvetica,sans-Serif" font-size="14.00">class = lose</text>
</g>
<!-- 12&#45;&gt;13 -->
<g id="edge13" class="edge">
<title>12&#45;&gt;13</title>
<path fill="none" stroke="black" d="M1650.32,-103.73C1644.42,-94.88 1638.17,-85.51 1632.25,-76.63"/>
<polygon fill="black" stroke="black" points="1635.16,-74.68 1626.7,-68.3 1629.33,-78.56 1635.16,-74.68"/>
</g>
<!-- 14 -->
<g id="node15" class="node">
<title>14</title>
<path fill="#e88e4e" stroke="black" d="M1798.5,-68C1798.5,-68 1700.5,-68 1700.5,-68 1694.5,-68 1688.5,-62 1688.5,-56 1688.5,-56 1688.5,-12 1688.5,-12 1688.5,-6 1694.5,0 1700.5,0 1700.5,0 1798.5,0 1798.5,0 1804.5,0 1810.5,-6 1810.5,-12 1810.5,-12 1810.5,-56 1810.5,-56 1810.5,-62 1804.5,-68 1798.5,-68"/>
<text text-anchor="start" x="1705.5" y="-52.8" font-family="Helvetica,sans-Serif" font-size="14.00">gini = 0.173</text>
<text text-anchor="start" x="1701" y="-37.8" font-family="Helvetica,sans-Serif" font-size="14.00">samples = 94</text>
<text text-anchor="start" x="1696.5" y="-22.8" font-family="Helvetica,sans-Serif" font-size="14.00">value = [85, 9]</text>
<text text-anchor="start" x="1707.5" y="-7.8" font-family="Helvetica,sans-Serif" font-size="14.00">class = lose</text>
</g>
<!-- 12&#45;&gt;14 -->
<g id="edge14" class="edge">
<title>12&#45;&gt;14</title>
<path fill="none" stroke="black" d="M1704.31,-103.73C1710.07,-94.97 1716.16,-85.7 1721.95,-76.91"/>
<polygon fill="black" stroke="black" points="1725.03,-78.58 1727.6,-68.3 1719.19,-74.73 1725.03,-78.58"/>
</g>
</g>
</svg>
